<?xml version="1.0" encoding="UTF-8" standalone="no"?>
<!-- Created with Inkscape (http://www.inkscape.org/) -->

<svg
   xmlns:dc="http://purl.org/dc/elements/1.1/"
   xmlns:cc="http://creativecommons.org/ns#"
   xmlns:rdf="http://www.w3.org/1999/02/22-rdf-syntax-ns#"
   xmlns:svg="http://www.w3.org/2000/svg"
   xmlns="http://www.w3.org/2000/svg"
   xmlns:sodipodi="http://sodipodi.sourceforge.net/DTD/sodipodi-0.dtd"
   xmlns:inkscape="http://www.inkscape.org/namespaces/inkscape"
   width="41.575211mm"
   height="19.07082mm"
   viewBox="0 0 41.575211 19.07082"
   version="1.1"
   id="svg4157"
   inkscape:version="0.92.0 r15299"
   sodipodi:docname="laing orourke.svg">
  <defs
     id="defs4151">
    <clipPath
       id="clipPath3965"
       clipPathUnits="userSpaceOnUse">
      <path
         inkscape:connector-curvature="0"
         id="path3963"
         d="M 45.079,751.831 H 162.93 V 805.89 H 45.079 Z" />
    </clipPath>
  </defs>
  <sodipodi:namedview
     id="base"
     pagecolor="#ffffff"
     bordercolor="#666666"
     borderopacity="1.0"
     inkscape:pageopacity="0.0"
     inkscape:pageshadow="2"
     inkscape:zoom="5.7084799"
     inkscape:cx="78.567326"
     inkscape:cy="36.039345"
     inkscape:document-units="mm"
     inkscape:current-layer="layer1"
     showgrid="false"
     fit-margin-top="0"
     fit-margin-left="0"
     fit-margin-right="0"
     fit-margin-bottom="0"
     inkscape:window-width="1280"
     inkscape:window-height="744"
     inkscape:window-x="-4"
     inkscape:window-y="-4"
     inkscape:window-maximized="1" />
  <metadata
     id="metadata4154">
    <rdf:RDF>
      <cc:Work
         rdf:about="">
        <dc:format>image/svg+xml</dc:format>
        <dc:type
           rdf:resource="http://purl.org/dc/dcmitype/StillImage" />
        <dc:title></dc:title>
      </cc:Work>
    </rdf:RDF>
  </metadata>
  <g
     inkscape:label="Layer 1"
     inkscape:groupmode="layer"
     id="layer1"
     transform="translate(-112.26001,-151.39316)">
    <g
       id="g4311">
      <path
         inkscape:connector-curvature="0"
         id="path3953"
         style="fill:#000000;fill-opacity:1;fill-rule:nonzero;stroke:none;stroke-width:0.35277778"
         d="m 112.26001,170.46398 h 41.57521 v -19.07082 h -41.57521 z" />
      <path
         d="m 119.57306,160.00998 h -0.0254 -0.45367 v 1.83797 h 1.57938 v -0.40605 h -1.10031 z"
         style="fill:#ffffff;fill-opacity:1;fill-rule:nonzero;stroke:none;stroke-width:0.35277778"
         id="path3957"
         inkscape:connector-curvature="0" />
      <path
         d="m 122.44273,160.00997 h -0.69215 l -0.94862,1.83797 h 0.55492 c 0,0 0.20673,-0.40499 0.21943,-0.42968 h 1.05621 c 0.012,0.025 0.21661,0.42968 0.21661,0.42968 h 0.55704 l -0.94792,-1.83797 z m -0.0215,1.00083 h -0.63394 c 0.0332,-0.0617 0.30445,-0.5715 0.32385,-0.60819 0.0212,0.0416 0.27869,0.54716 0.31009,0.60819"
         style="fill:#ffffff;fill-opacity:1;fill-rule:nonzero;stroke:none;stroke-width:0.35277778"
         id="path3969"
         inkscape:connector-curvature="0" />
      <path
         d="m 123.53479,160.00997 v 1.83797 h 0.47978 v -1.83797 h -0.024 z"
         style="fill:#ffffff;fill-opacity:1;fill-rule:nonzero;stroke:none;stroke-width:0.35277778"
         id="path3973"
         inkscape:connector-curvature="0" />
      <path
         d="m 126.1597,160.00997 v 1.19062 c -0.078,-0.0762 -1.19274,-1.19062 -1.19274,-1.19062 h -0.67416 v 1.83868 h 0.4759 v -1.30457 c 0.0783,0.0772 1.32291,1.30457 1.32291,1.30457 h 0.54646 v -1.83868 h -0.024 -0.45438"
         style="fill:#ffffff;fill-opacity:1;fill-rule:nonzero;stroke:none;stroke-width:0.35277778"
         id="path3977"
         inkscape:connector-curvature="0" />
      <path
         d="m 128.46758,159.99212 h -0.86677 c -0.50024,0 -0.67945,0.17709 -0.68439,0.67733 v 0.54399 c 0.005,0.5588 0.33337,0.635 0.68439,0.635 h 0.86677 c 0.52705,0 0.67169,-0.12806 0.67169,-0.5969 v -0.53023 h -1.18181 v 0.39547 h 0.69498 c 0.004,0.0201 0.006,0.0462 0.006,0.0748 0,0.0233 -0.002,0.0462 -0.007,0.0631 -0.0353,0.10689 -0.0899,0.15769 -0.30515,0.15769 h -0.63182 c -0.19121,0 -0.31644,-0.0197 -0.32033,-0.28998 v -0.381 c 0.005,-0.26211 0.0801,-0.3429 0.32033,-0.3429 h 0.63182 c 0.25012,0 0.29845,0.0663 0.30127,0.18803 v 0.0236 h 0.49213 v -0.0236 c 0,-0.49354 -0.26917,-0.59443 -0.67169,-0.59443"
         style="fill:#ffffff;fill-opacity:1;fill-rule:nonzero;stroke:none;stroke-width:0.35277778"
         id="path3981"
         inkscape:connector-curvature="0" />
      <path
         d="m 131.70082,160.00997 h -0.78669 c -0.52705,0 -0.67416,0.14111 -0.68475,0.65899 -0.007,0.21484 -0.005,0.32103 -7e-4,0.53234 l 7e-4,0.012 c 0.006,0.54364 0.21626,0.63536 0.68475,0.63536 h 0.78669 c 0.46426,0 0.6604,-0.0882 0.67169,-0.63536 0.003,-0.16121 0.003,-0.36018 0,-0.54433 -0.006,-0.55175 -0.25047,-0.65899 -0.67169,-0.65899 m 0.19297,0.84914 -7.1e-4,0.27657 c -0.005,0.27023 -0.0734,0.28258 -0.31115,0.28258 h -0.55386 c -0.25259,0 -0.31856,-0.012 -0.32102,-0.28258 l -7.1e-4,-0.27199 7.1e-4,-0.11747 c 0.005,-0.26953 0.0564,-0.29387 0.32102,-0.29387 h 0.55386 c 0.25259,0 0.30657,0.0268 0.31115,0.29457 0,3.6e-4 7.1e-4,0.11219 7.1e-4,0.11219"
         style="fill:#ffffff;fill-opacity:1;fill-rule:nonzero;stroke:none;stroke-width:0.35277778"
         id="path3985"
         inkscape:connector-curvature="0" />
      <path
         d="m 132.59254,160.00563 0.0614,0.63465 h 0.21555 l 0.0624,-0.63465 h -0.0268 z"
         style="fill:#ffffff;fill-opacity:1;fill-rule:nonzero;stroke:none;stroke-width:0.35277778"
         id="path3989"
         inkscape:connector-curvature="0" />
      <path
         d="m 135.03721,161.12253 c 0.0815,-0.0536 0.21167,-0.1838 0.21167,-0.45861 0,-0.4512 -0.32597,-0.65405 -0.6477,-0.65405 h -1.35855 -0.0236 v 1.83868 h 0.47837 v -0.53199 h 0.80469 c 0.26881,0 0.31609,0.0737 0.31609,0.22966 v 0.30233 h 0.47695 v -0.39511 c 0,-0.24166 -0.16969,-0.30727 -0.25788,-0.33091 m -1.33985,-0.63571 h 0.87066 c 0.1471,0 0.21978,0.0617 0.21978,0.18733 0,0.10019 -0.0367,0.16757 -0.20955,0.16757 h -0.88089 v -0.3549"
         style="fill:#ffffff;fill-opacity:1;fill-rule:nonzero;stroke:none;stroke-width:0.35277778"
         id="path3993"
         inkscape:connector-curvature="0" />
      <path
         d="m 137.00325,160.00997 h -0.78881 c -0.52635,0 -0.67381,0.14111 -0.68333,0.65899 -0.007,0.20814 -0.005,0.3182 -7.1e-4,0.51611 l 7.1e-4,0.0282 c 0.005,0.54364 0.21555,0.63536 0.68333,0.63536 h 0.78881 c 0.46461,0 0.6604,-0.0882 0.67134,-0.63536 0.002,-0.16121 0.002,-0.36018 0,-0.54398 -0.005,-0.5521 -0.25012,-0.65934 -0.67134,-0.65934 m 0.19403,0.84914 -0.001,0.27657 c -0.005,0.27023 -0.0748,0.28258 -0.31186,0.28258 h -0.5528 c -0.25259,0 -0.31926,-0.012 -0.32103,-0.28258 l -7e-4,-0.27199 7e-4,-0.11747 c 0.004,-0.26953 0.0568,-0.29387 0.32103,-0.29387 h 0.5528 c 0.23707,0 0.30657,0.0131 0.31186,0.29457 0,3.6e-4 0.001,0.11219 0.001,0.11219"
         style="fill:#ffffff;fill-opacity:1;fill-rule:nonzero;stroke:none;stroke-width:0.35277778"
         id="path3997"
         inkscape:connector-curvature="0" />
      <path
         d="m 139.60893,160.00997 v 1.13277 c 0,0.25224 -0.0882,0.29669 -0.28787,0.29986 h -0.43462 -0.15593 c -0.23283,-0.003 -0.30339,-0.073 -0.30339,-0.29633 v -1.1363 h -0.47483 v 1.17687 c 0,0.4766 0.18626,0.65546 0.68544,0.66181 0.22931,0.002 0.56127,0.002 0.7874,0 0.49001,-0.006 0.66287,-0.17921 0.66287,-0.66181 v -1.17687 h -0.0233 -0.45579"
         style="fill:#ffffff;fill-opacity:1;fill-rule:nonzero;stroke:none;stroke-width:0.35277778"
         id="path4001"
         inkscape:connector-curvature="0" />
      <path
         d="m 142.18774,161.12253 c 0.0825,-0.055 0.21343,-0.1838 0.21343,-0.45861 0,-0.4512 -0.32561,-0.65405 -0.6484,-0.65405 h -1.36067 -0.025 v 1.83868 h 0.48225 v -0.53199 h 0.80151 c 0.26811,0 0.3168,0.0737 0.3168,0.22966 v 0.30233 h 0.47977 v -0.39511 c 0,-0.24166 -0.17039,-0.30727 -0.25964,-0.33091 m -1.33844,-0.63571 h 0.8696 c 0.14711,0 0.21731,0.0617 0.21731,0.18733 0,0.10019 -0.0356,0.16757 -0.20673,0.16757 h -0.88018 v -0.3549"
         style="fill:#ffffff;fill-opacity:1;fill-rule:nonzero;stroke:none;stroke-width:0.35277778"
         id="path4005"
         inkscape:connector-curvature="0" />
      <path
         d="m 144.90899,160.00997 h -0.58314 c 0,0 -0.93169,0.62089 -0.94368,0.62971 h -0.17921 v -0.62971 h -0.47766 v 1.83868 h 0.47766 v -0.80222 h 0.18309 c 0.0134,0.0113 0.95567,0.80222 0.95567,0.80222 h 0.61948 c 0,0 -1.16663,-0.95568 -1.21602,-0.99448 0.0526,-0.0342 1.24213,-0.8442 1.24213,-0.8442 h -0.0783"
         style="fill:#ffffff;fill-opacity:1;fill-rule:nonzero;stroke:none;stroke-width:0.35277778"
         id="path4009"
         inkscape:connector-curvature="0" />
      <path
         d="m 147.00009,160.41482 v -0.40499 h -0.0247 -1.85526 v 1.83868 h 1.87995 v -0.40605 h -1.40088 v -0.33867 h 1.35678 v -0.40745 h -1.35678 v -0.28152 z"
         style="fill:#ffffff;fill-opacity:1;fill-rule:nonzero;stroke:none;stroke-width:0.35277778"
         id="path4013"
         inkscape:connector-curvature="0" />
      <path
         inkscape:connector-curvature="0"
         id="path4015"
         style="fill:#e30613;fill-opacity:1;fill-rule:nonzero;stroke:none;stroke-width:0.35277778"
         d="m 118.00853,164.69077 h 30.07748 v -0.87912 h -30.07748 z" />
      <path
         inkscape:connector-curvature="0"
         id="path4017"
         style="fill:#ffed00;fill-opacity:1;fill-rule:nonzero;stroke:none;stroke-width:0.35277778"
         d="m 118.00853,158.04655 h 30.07748 v -0.88088 h -30.07748 z" />
    </g>
  </g>
</svg>
