<?xml version="1.0" encoding="UTF-8"?>
<svg width="400" height="220" version="1.1" xmlns="http://www.w3.org/2000/svg">
 <path d="m-1.8311e-6 2.4414e-5h400v220h-400z" fill="#00376d"/>
 <path d="m205.67 42.043c-16.001 0.06182-34.563 4.4225-47.746 20.625-28.125 34.565 6.4404 93.607 79.436 73.211l-0.21485-20.182s-66.339 13.955-59.684-28.125c6.6554-43.582 58.396-19.107 58.396-19.107l2.791-21.039s-14.845-5.4529-32.979-5.3828zm86.1 0.30859c-22.461 0.13712-39.301 7.4751-42.387 25.684-4.2938 25.548 27.266 30.272 38.645 33.922 11.379 3.6498 16.316 15.672-0.85938 18.463-16.961 2.791-34.564-5.7949-34.564-5.7949l-1.9316 20.824c60.328 11.808 74.926-7.5144 74.926-30.486 0-22.757-34.35-24.904-42.938-29.412-8.5877-4.5085-2.3613-11.809-2.3613-11.809 11.808-7.7289 38 0.64453 38 0.64453l1.9316-19.107c-10.023-1.9322-19.672-2.9814-28.461-2.9277zm-212.21 1.6387-39.504 93.605h27.695l7.7285-20.609h39.074l7.5137 21.039h29.842l-39.287-94.035zm16.316 19.107 12.666 36.068h-26.111z" fill="#f9be00"/>
 <path d="m213.1 150.48-1.2871 2.1465h1.0723l1.5039-1.9336zm-160.16 3.4336c-2.3616 0-4.5078 1.9321-4.5078 5.3672 0 3.0057 1.5021 5.1523 4.5078 5.1523 0.85876 0 1.7191-0.21303 2.1484-0.42773l-0.42969-1.9336c-0.21469 0.21469-0.85984 0.42969-1.5039 0.42969-1.5028 0-2.5762-1.2885-2.5762-3.2207 0-2.3616 1.0733-3.4336 2.5762-3.4336 0.64407 0 1.2892 0.21485 1.5039 0.21485l0.42969-1.7188c-0.42938-0.21469-1.075-0.42969-2.1484-0.42969zm60.328 0c-1.9322 0-3.2188 1.2883-3.2188 3.0059 0 1.5028 0.85849 2.3618 2.3613 3.0059 1.0734 0.42938 1.502 0.85982 1.502 1.5039 0 0.64407-0.42835 1.0723-1.2871 1.0723-0.85877 0-1.7171-0.42984-2.1465-0.64453l-0.64453 2.1484c0.42938 0.42939 1.5026 0.64257 2.3613 0.64257 2.3616 0 3.4355-1.5012 3.4355-3.2188 0-1.5028-0.64559-2.3618-2.1484-3.0058-1.0734-0.64409-1.502-0.85984-1.502-1.5039 0-0.64408 0.42835-1.0723 1.2871-1.0723 0.85877 0 1.2894 0.21305 1.7188 0.42774l0.42969-1.9316c-0.42939-0.21469-1.2897-0.42969-2.1484-0.42969zm28.125 0c-2.3616 0-4.5078 1.9321-4.5078 5.3672 0 3.0057 1.5021 5.1523 4.5078 5.1523 1.0735 0 1.7191-0.21303 2.1484-0.42773l-0.42969-2.1484c-0.2147 0.21469-0.85983 0.42969-1.5039 0.42969-1.5028 0-2.5762-1.2885-2.5762-3.2207 0-2.3616 1.0733-3.4336 2.5762-3.4336 0.64407 0 1.0745 0.215 1.5039 0.42969l0.42969-1.7188c-0.42938-0.21469-1.075-0.42969-2.1484-0.42969zm6.8711 0c-2.3616 0-4.0801 2.3615-4.0801 5.3672 0 2.791 1.2889 5.1523 3.8652 5.1523 2.3616 0 4.0783-1.9321 4.293-5.3672 0-2.791-1.5018-5.1523-4.0781-5.1523zm47.232 0c-2.3616 0-4.5098 1.9321-4.5098 5.3672 0 3.0057 1.5041 5.1523 4.5098 5.1523 1.0735 0 1.7171-0.21303 2.1465-0.42773l-0.42969-2.1484c-0.2147 0.21469-0.85788 0.42969-1.502 0.42969-1.5028 0-2.5781-1.2885-2.5781-3.2207 0-2.3616 1.0753-3.4336 2.5781-3.4336 0.64407 0 1.0726 0.215 1.502 0.42969l0.42969-1.7188c-0.42938-0.21469-1.073-0.42969-2.1465-0.42969zm6.8691 0c-2.3616 0-4.5078 1.9321-4.5078 5.3672 0 3.0057 1.5021 5.1523 4.5078 5.1523 1.0735 0 1.7171-0.21303 2.1465-0.42773l-0.21484-2.1484c-0.21469 0.21469-0.85787 0.42969-1.502 0.42969-1.7175 0-2.791-1.2885-2.791-3.2207 0-2.3616 1.0733-3.4336 2.5762-3.4336 0.64408 0 1.0745 0.215 1.5039 0.42969l0.42773-1.7188c-0.42939-0.21469-1.073-0.42969-2.1465-0.42969zm10.734 0c-2.3616 0-4.0781 2.3615-4.0781 5.3672 0 2.791 1.287 5.1523 3.8633 5.1523s4.2949-1.9321 4.2949-5.3672c0-2.791-1.5038-5.1523-4.0801-5.1523zm-170.25 0.21484-2.5762 10.092h1.9316l0.64453-2.5781h2.3613l0.64453 2.5781h2.1465l-2.5762-10.092zm12.666 0v1.9336h2.3633v8.1582h1.9316v-8.1582h2.1465v-1.9336zm7.5156 0v10.092h1.9316v-10.092zm2.791 0 2.791 10.092h2.1465l2.791-10.092h-1.9316l-1.0742 4.2949c-0.42938 1.2882-0.64468 2.3603-0.85938 3.6484 0-1.2882-0.42789-2.3603-0.64258-3.6484l-1.0742-4.2949zm8.8027 0v10.092h1.9316v-10.092zm6.0098 0c-1.0735 0-1.9321 1.6e-4 -2.5762 0.21485h0.21484v9.877c0.42938 0.21469 1.073 0.21289 2.1465 0.21289 1.7175 0 3.0065-0.42835 3.8652-1.2871 0.64408-0.85877 1.2891-2.1479 1.2891-4.0801 0-1.7175-0.64514-3.0045-1.5039-3.8633-0.85876-0.85876-1.718-1.0742-3.4355-1.0742zm8.1582 0-2.5762 10.092h1.9336l0.64258-2.5781h2.3633l0.64258 2.5781h2.1484l-2.5781-10.092zm8.8027 0c-1.0734 0-1.9321 1.6e-4 -2.5762 0.21485h0.21484v9.877c0.42938 0.21469 1.073 0.21289 2.1465 0.21289 1.7175 0 3.0065-0.42835 3.8652-1.2871 0.64407-0.85877 1.2871-2.1479 1.2871-4.0801 0-1.7175-0.6432-3.0045-1.502-3.8633-0.85877-0.85876-1.9327-1.0742-3.4355-1.0742zm6.2266 0v10.092h5.3672v-1.9336h-3.4356v-2.3613h3.0059v-1.7168h-3.2207v-2.1465h3.2207v-1.9336zm54.531 0v3.0059c0 1.5028 1.5e-4 3.0068 0.21484 4.2949-0.21469-1.0735-0.85772-2.3621-1.2871-3.4355l-1.7188-3.6504h-2.1465v10.09h1.7168v-7.5137c0.42938 1.2882 1.0745 2.5769 1.5039 3.6504l1.7168 3.8633h1.9316v-10.305zm6.4414 0c-1.9322 0-3.2207 1.2883-3.2207 3.0059 0 1.5028 0.85849 2.3618 2.3613 3.0059 1.0735 0.42938 1.5039 0.85787 1.5039 1.502 0 0.64407-0.4303 1.0742-1.2891 1.0742s-1.7171-0.42984-2.1465-0.64453l-0.42969 1.9336c0.42938 0.42939 1.5026 0.64257 2.3613 0.64257 2.3616 0 3.4356-1.5012 3.4356-3.2188 0-1.5028-0.64365-2.3618-2.1465-3.0058-1.0735-0.64409-1.5039-0.85984-1.5039-1.5039 0-0.64408 0.43029-1.0723 1.2891-1.0723 0.85876 0 1.2874 0.21305 1.7168 0.42774l0.21484-1.7168c-0.42938-0.21469-1.2877-0.42969-2.1465-0.42969zm3.2207 0v1.9336h2.1465v8.3711h1.9316v-8.3711h2.3613v-1.9336zm10.09 0c-1.0735 0-1.9321 1.6e-4 -2.5762 0.21485v10.09h1.9316v-4.0781h0.64453c0.64407 0.21469 1.0724 0.42864 1.2871 1.7168 0.2147 1.2882 0.42984 2.1466 0.64453 2.3613h1.9336c-0.21469-0.21469-0.42984-1.7176-0.64453-2.791s-0.43015-1.717-1.0742-1.9316c0.64407-0.42939 1.5039-1.288 1.5039-2.5762 0-0.85877-0.42998-1.7171-0.85937-2.1465-0.64407-0.64407-1.5029-0.85938-2.791-0.85938zm4.7227 0v5.582c0 3.2204 1.2886 4.7227 3.4356 4.7227 2.1469 0 3.4355-1.5023 3.4355-4.7227v-5.582h-1.9336v5.7969c0 1.7175-0.42849 2.5762-1.502 2.5762-0.85876 0-1.502-0.85864-1.502-2.5762v-5.7969zm40.578 0v3.0059c0 1.5028-2e-3 3.0068 0.21289 4.2949-0.21469-1.0735-0.85773-2.3621-1.2871-3.4355l-1.7168-3.6504h-2.1484v10.09h1.5039v-7.5137c0.42938 1.2882 1.0726 2.5769 1.502 3.6504l1.7188 3.8633h1.9316v-10.305zm19.75 0c-1.9322 0-3.2207 1.2883-3.2207 3.0059 0 1.5028 1.0751 2.3618 2.3633 3.0059 0.85877 0.42938 1.2871 0.85787 1.2871 1.502 0 0.64407-0.42834 1.0742-1.2871 1.0742s-1.7191-0.42984-2.1484-0.64453l-0.21484 2.1484c0.42938 0.42938 1.5045 0.64258 2.3633 0.64258 2.1469 0 3.2188-1.5032 3.2188-3.2207 0-1.5028-0.64364-2.3598-2.1465-3.0039-1.0735-0.64408-1.502-0.85984-1.502-1.5039 0-0.64408 0.42834-1.0723 1.2871-1.0723s1.5041 0.21304 1.7188 0.42773l0.42969-1.9316c-0.42939-0.21469-1.2897-0.42969-2.1484-0.42969zm32.633 0c-2.5763 0-4.5078 1.9321-4.5078 5.3672 0 3.0057 1.5039 5.1523 4.2949 5.1523 1.0735 0 1.7171-0.21304 2.1465-0.42773l-0.42969-2.1484c-0.21469 0.21469-0.85982 0.42969-1.5039 0.42969-1.5028 0-2.5762-1.2885-2.5762-3.2207 0-2.3616 1.0733-3.4336 2.5762-3.4336 0.64408 0 1.0745 0.21305 1.5039 0.42774l0.42969-1.7168c-0.21469-0.21469-0.86013-0.42969-1.9336-0.42969zm10.307 0c-2.5763 0-4.0801 2.3615-4.0801 5.3672 0 2.791 1.5036 5.1523 3.8652 5.1523 2.5763 0 4.0781-1.9321 4.0781-5.3672 0-2.791-1.287-5.1524-3.8633-5.1524zm8.1582 0c-1.9322 0-3.2207 1.2883-3.2207 3.0059 0 1.5028 1.0732 2.3618 2.3613 3.0059 0.85877 0.42938 1.2891 0.85787 1.2891 1.502 0 0.64407-0.43029 1.0742-1.2891 1.0742-0.85876 0-1.7171-0.42984-2.1465-0.64453l-0.21484 2.1484c0.42938 0.42938 1.5026 0.64258 2.3613 0.64258 2.1469 0 3.2207-1.5032 3.2207-3.2207 0-1.5028-0.64365-2.3598-2.1465-3.0039-1.0735-0.64408-1.5039-0.85984-1.5039-1.5039 0-0.64408 0.43029-1.0723 1.2891-1.0723s1.5021 0.21304 1.7168 0.42773l0.42968-1.9316c-0.42939-0.21469-1.2877-0.42969-2.1465-0.42969zm-172.18 0.21485c-1.0735 0-1.9321 1.5e-4 -2.5762 0.21484h0.21485v9.875c0.42938 0.21469 1.073 0.21484 2.1465 0.21484 1.7175 0 3.0065-0.42833 3.8652-1.2871 0.64407-0.85878 1.2891-2.1478 1.2891-4.0801 0-1.7175-0.64515-3.0045-1.5039-3.8633-0.85877-0.85877-1.718-1.0742-3.4355-1.0742zm6.2266 0v10.09h5.3672v-1.9316h-3.4356v-2.3613h3.0059v-1.7168h-3.0059v-2.1484h3.2207v-1.9316zm77.504 0v10.09h1.9316v-10.09zm23.83 0 2.5762 6.0117v4.0781h1.7188v-4.293l3.0058-5.7969h-2.1484l-0.85742 2.3613c-0.21469 0.64409-0.42985 1.2895-0.64454 1.9336-0.21469-0.64408-0.42984-1.2895-0.64453-1.9336l-0.85937-2.3613zm17.176 0v10.09h5.1524v-1.9316h-3.4356v-2.3613h3.2207v-1.7168h-3.0058v-2.1484h3.2207v-1.9316zm9.0176 0c-1.0735 0-1.9321 1.5e-4 -2.5762 0.21484h-0.21484v9.875h1.9316v-3.8633h0.64453c0.64407 0.21469 1.0724 0.42865 1.2871 1.7168 0.2147 1.2882 0.42984 2.1466 0.64453 2.3613h1.9316c-0.21469-0.21469-0.42789-1.7176-0.64258-2.791s-0.43015-1.717-1.0742-1.9316c0.85877-0.42939 1.502-1.288 1.502-2.5762 0-0.85877-0.42804-1.7171-0.85743-2.1465-0.42938-0.64407-1.288-0.85937-2.5762-0.85937zm3.8633 0 2.5762 10.09h2.1484l2.791-10.09h-1.9336l-1.0723 4.2949c-0.21469 1.2882-0.42984 2.3603-0.64453 3.6484 0-1.2882-0.42984-2.3603-0.64453-3.6484l-1.0723-4.2949zm8.373 0v10.09h1.9336v-10.09zm10.949 0v10.09h1.9336v-10.09zm-199.02 1.2891h0.85742c1.5028 0 2.5762 1.0738 2.5762 3.2207 0 2.5763-1.0735 3.6484-2.791 3.6484h-0.64258zm16.959 0h0.85938c1.5028 0 2.5762 1.0738 2.5762 3.2207 0 2.5763-1.0735 3.6484-2.791 3.6484h-0.64453zm80.295 0h0.85937c1.0734 0 1.502 0.64318 1.502 1.502 0 0.85876-0.6432 1.5039-1.502 1.5039h-0.85937zm-133.11 0.21484c0 0.64407 0.21304 1.2876 0.42773 1.9316l0.42969 2.1465h-1.7168l0.42969-2.1465c0.2147-0.64407 0.215-1.2876 0.42969-1.9316zm45.943 0c0.21469 0.64407 0.21499 1.2876 0.42969 1.9316l0.42969 2.1465h-1.7188l0.42969-2.1465c0.21469-0.64407 0.215-1.2876 0.42969-1.9316zm31.346 0h0.85742c1.5028 0 2.5762 1.0718 2.5762 3.2188 0 2.5763-1.0735 3.6504-2.791 3.6504h-0.64258zm26.621 0c1.2882 0 1.9316 1.7161 1.9316 3.4336 0 1.9322-0.64349 3.4355-1.9316 3.4355s-1.9318-1.5033-2.1465-3.4355c0-1.9322 0.85833-3.4336 2.1465-3.4336zm65.051 0c1.2882 0 1.9336 1.7161 1.9336 3.4336 0 1.9322-0.64545 3.4355-1.9336 3.4355-1.2881 0-2.1465-1.5033-2.1465-3.4355s0.85834-3.4336 2.1465-3.4336zm42.08 0h0.85938c0.85876 0 1.2871 0.64319 1.2871 1.502s-0.6432 1.5039-1.502 1.5039h-0.64453zm30.916 0c1.2882 0 1.9316 1.7161 1.9316 3.4336 0 1.9322-0.64349 3.4355-1.9316 3.4355-1.2881 0-2.1483-1.2886-1.9336-3.4355 0-1.9322 0.64546-3.4336 1.9336-3.4336z" fill="#fff"/>
 <path d="m334.4 177.96-25.548-24.689 25.977-23.831 25.119 24.26z" fill="#fff"/>
 <path d="m332.9 149.4v12.237h15.028l-13.311 12.881-14.599-13.955z" fill="#222944"/>
 <path d="m348.78 146.83-14.599-14.17-12.667 12.237h13.955l0.64407 12.881z" fill="#f9be00"/>
</svg>
