<svg xmlns="http://www.w3.org/2000/svg" id="Layer_1" data-name="Layer 1" viewBox="0 0 172 85.4" xmlns:xlink="http://www.w3.org/1999/xlink">
 <title>
  logo
 </title>
 <path d="M106.3,193.1a42.3,42.3,0,0,1,0-84.6h86.6a42.3,42.3,0,1,1,0,84.6Zm1.2-56.2a13.8,13.8,0,1,0,.2,27.6H192a13.8,13.8,0,0,0-.2-27.6Z" transform="translate(-63.6 -108.1)" fill="#f15a22">
 </path>
 <path d="M192.3,165H107.4a14.3,14.3,0,1,1-.3-28.6h85a14.3,14.3,0,0,1,.2,28.6M106,108.5a42.3,42.3,0,1,0,0,84.6h87.3a42.3,42.3,0,0,0,0-84.6Z" transform="translate(-63.6 -108.1)" fill="#f15a22">
 </path>
 <path d="M108.4,154.4h-1.7V152h1.7c1,0,1.4.3,1.4,1.2s-.5,1.2-1.4,1.2m16-3.7a3.5,3.5,0,1,1-3.5-3.7,3.5,3.5,0,0,1,3.5,3.7m-17.7-3.8h1.4c.8,0,1.2.4,1.2,1.1s-.4,1.1-1.2,1.1h-1.4Zm64.4,10.8c3.5,0,5.2-1.9,5.2-5.5v-8.3h-3.4v8.6c0,1.4-.7,2.2-1.8,2.2s-1.8-.8-1.8-2.2v-8.6h-3.4v8.3c0,3.6,1.7,5.5,5.2,5.5m-19-13.8h-3.8l-2.2,5.1-2.2-5.1h-3.7l4.2,8.9v4.7h3.5v-4.7Zm-17.8,13.8c3.4,0,5.2-1.9,5.2-5.5v-8.3h-3.4v8.6c0,1.4-.7,2.2-1.8,2.2s-1.9-.8-1.9-2.2v-8.6H129v8.3c0,3.6,1.8,5.5,5.3,5.5m43.3-.2h8.2v-3.1H181v-2.3h4.4v-3H181V147h4.7v-3.1h-8.1Zm-64.3-4.2a3.3,3.3,0,0,0-2.1-3,3,3,0,0,0,1.6-2.8,3.5,3.5,0,0,0-3.8-3.6h-5.8v13.6h5.1c3.5,0,5-1.8,5-4.2m51.5-2.6v-.8h-7.3v2.8h3.4c-.3,1.3-1.6,1.9-3.1,1.9s-3.5-1.8-3.5-3.9a3.5,3.5,0,0,1,3.5-3.8,3.4,3.4,0,0,1,2.9,1.5h3.7a6.7,6.7,0,0,0-6.6-4.8,7.1,7.1,0,0,0,0,14.1,6.7,6.7,0,0,0,7-7m31.1-2.8a4.2,4.2,0,0,0-4.6-4.3,4.2,4.2,0,0,0-4.5,4.1c0,5.2,5.7,3.8,5.7,6.1,0,.6-.3,1-1.1,1a1.3,1.3,0,0,1-1.4-1.5h-3.3c0,2.6,1.4,4.4,4.6,4.4s4.6-2,4.6-4c0-5.1-5.8-3.8-5.8-6.1a1,1,0,0,1,1.1-1,1.1,1.1,0,0,1,1.2,1.3ZM114,150.7a7,7,0,1,0,6.9-7.1c-4.4,0-6.9,3.4-6.9,7.1m77.8-13.5a13.5,13.5,0,0,1,.2,27H107.7A13.6,13.6,0,0,1,94,150.7a13.4,13.4,0,0,1,13.5-13.5ZM206,150.7a14.3,14.3,0,0,0-14.2-14.2H107.5a14.2,14.2,0,1,0,.2,28.3H192a14.1,14.1,0,0,0,14-14.1m-13.1-41.9a42,42,0,0,1,0,84H106.3a42,42,0,0,1,0-84Zm42.7,42a42.7,42.7,0,0,0-42.7-42.7H106.3a42.7,42.7,0,0,0,0,85.4h86.6a42.7,42.7,0,0,0,42.7-42.7" transform="translate(-63.6 -108.1)" fill="#231f20">
 </path>
</svg>