<svg viewBox="0 0 1152 286.468" xmlns="http://www.w3.org/2000/svg"><path d="M165.85 21.267a123.044 123.044 0 1 0 123.041 123.04A123.05 123.05 0 0 0 165.85 21.267Z"></path><path class="yellow" d="M182.483 40.313a.668.668 0 0 1-.206.032q-.366.61-4.348 8.417a36.14 36.14 0 0 1-1.889 3.444 3.34 3.34 0 0 1-.939-.053 1.711 1.711 0 0 1-.432-.563c-.012-.02-.158-.52-.443-1.504q-4.719-16.258-5.323-18.014a4.561 4.561 0 0 0-2.99-3.244 3.157 3.157 0 0 1-.017-1.331c.289-.31 10.898.05 12.827.516 0 .016-.069.44-.188 1.256l-.941-.009c-.595 0-2.652.932-2.031 2.84l2.948 9.132a.18.18 0 0 0 .125.03q.452-.53 3.442-6.155c1.993-3.765 3.129-5.833 3.39-6.208a1.495 1.495 0 0 1 1.477.525q.061.08 1.953 9.373c.648 3.219 1.047 5.027 1.178 5.457a2.012 2.012 0 0 0 .607-.425q.102-.13 3.778-6.096a9.466 9.466 0 0 0 1.382-2.866 2.787 2.787 0 0 0-1.967-2.734l.381-1.312a70.67 70.67 0 0 1 8.924 2.743 1.213 1.213 0 0 1-.247.865l-.19.288.006.15c-1.512-.573-3.02.013-4.526 1.783-.406.486-2.03 3.055-4.845 7.707q-3.404 5.637-4.34 7.152c-.888 1.406-1.407 2.262-1.59 2.583a1.532 1.532 0 0 1-1.576-.568c-.078-.112-.654-2.45-1.753-7.026a48.925 48.925 0 0 0-1.637-6.185ZM108.507 55.724l.783-.298a8.223 8.223 0 0 1 7.826 1.001c.85.573 2.106 1.442 3.783 2.652q1.931 1.399 3.05.895l.473-.208.11-.003a2.283 2.283 0 0 1 .534 1.218c-.16.09-.61.32-1.354.691q-2.914 1.463-5.337 2.882c-.5.29-.804.416-.9.346l-.666-.423q-7.377-4.6-8.23-4.688a1.732 1.732 0 0 0-1.502 2.798c.023.031.165.237.459.617.14.19.434.618.884 1.263 1.669 2.367 3.83 2.649 4.769 1.568l.238.025a6.104 6.104 0 0 0 .433.67l.262.268c.023.018.034.067.01.152-.266.216-.883.66-1.87 1.347a62.463 62.463 0 0 0-6.613 5.23l-.568.511h-.194a7.651 7.651 0 0 1-.806-.91c-.004-.083.006-.136.03-.152l.371-.4c.608-.656.574-1.693-.087-3.11q-.388-.808-7.47-9.686a31.234 31.234 0 0 0-2.469-2.9 2.885 2.885 0 0 0-3.237-.705l-.557.277a.421.421 0 0 1-.197.004c-.487-.482-.721-.797-.694-.968a93.987 93.987 0 0 1 10.347-8.096h.147q.942 1.05.763 1.162l-.64.43a2.202 2.202 0 0 0-.79 2.26 5.828 5.828 0 0 0 1.324 2.78c.042.064.344.482.881 1.266.18.235 1.091 1.477 2.75 3.728h.294c.07-.123 3.259-10.31 3.288-10.545a2.52 2.52 0 0 0-.962-2.68 1.963 1.963 0 0 0-2.012.055 2.06 2.06 0 0 1-.456.185 4.18 4.18 0 0 1-.64-1.173s9.82-5.567 10.285-5.509c.528.774.716 1.22.57 1.32l-.622.442a7.59 7.59 0 0 0-1.961 3.316 97.838 97.838 0 0 0-3.83 11.095ZM159.635 43.422a5.71 5.71 0 0 1-1.37.125l-.628-.562c-3.05-2.71-6.697-1.662-7.475-.875a2.817 2.817 0 0 0-.537 2.587c.514 2.963 1.097 6.28 6.846 4.758a13.777 13.777 0 0 0 8.267-6.906 1.869 1.869 0 0 1 .764.217l.318.184.16.004-2.214 8.442c0 .012-1.338.087-4.001.227a82.991 82.991 0 0 0-15.435 2.316c-1.048.26-1.603.388-1.666.388a.096.096 0 0 0-.098-.048l-.3-1.052a.087.087 0 0 1 .023-.095l.689-.428c.763-.488 1.041-1.575.847-3.252q-.047-.373-1.047-4.461c-.114-.446-.212-.937-.347-1.493-1.03-4.68-1.653-7.406-1.888-8.181-.65-2.093-1.964-3.038-3.944-2.805a5.822 5.822 0 0 0-.232-.901l-.115-.298a118.614 118.614 0 0 1 23.565-3.62c.091.16 3.074 6.622 3.074 6.697l.011.201-1.309.55-.048-.015a.213.213 0 0 0-.096 0 12.732 12.732 0 0 0-10.081-4.717c-3.602-.077-4.202 1.076-3.774 3.451a33.04 33.04 0 0 0 1.03 4.796c1.35 2.441 6.903.782 8.434-2.303l.353-.686c.04-.09.255-.17.664-.278a2.349 2.349 0 0 1 .784-.052c.111.408.895 7.933.776 8.085ZM225.498 71.588a4.83 4.83 0 0 0-.295-.494q-1.079-1.74 1.831-5.43.766-.992 5.06-6.615c.848-1.103 1.455-1.908 1.831-2.384l.466-.6.421-.626c1.264-1.902 3.903-1.313 4.719 3.248a9.779 9.779 0 0 1-.07 3.374 6.702 6.702 0 0 0-.142.937 2.788 2.788 0 0 0 1.635.263c.32-.75.921-2.736 1.808-5.98l.206-.758c.059-.215-4.54-4.026-7.307-6.032a93.486 93.486 0 0 0-9.856-6.456l-6.032 3.523-.088.022.701 1.395a.332.332 0 0 1 .133-.03l.084.02.946-.377c3.22-1.316 7.186-.646 7.826.433.45.807.105 1.956-1.07 3.476q-2.092 2.717-6.021 8.031a24.905 24.905 0 0 1-2.927 3.589c-1.142.885-2.668 1.322-3.698.42-.198.017-.455.326-.775.93l.082.186.682.4a60.09 60.09 0 0 1 6.515 4.579c1.513 1.19 2.352 1.834 2.515 1.948a3.096 3.096 0 0 0 .569-.636ZM198.49 55.96a1.15 1.15 0 0 1 .305.06c.913.286 2.342-.672 3.096-1.957q.425-.742 4.783-10.8a17.67 17.67 0 0 0 1.346-3.687c.269-1.85-.222-3.021-1.466-3.528a2.017 2.017 0 0 1 .385-1.181c.434-.064 9.797 3.898 11.862 5.362.03.204-.115.522-.457.941-.024-.005-.037-.005-.071-.014a3.103 3.103 0 0 1-.407-.146c-1.524-.64-3.076.364-3.924 1.857-.077.156-.512 1.097-1.289 2.818a357.338 357.338 0 0 1-4.233 9.128 10.764 10.764 0 0 0-1.076 2.884c-.146 1.49.343 2.447 1.452 2.881.069.314-.114.715-.539 1.204a24.31 24.31 0 0 1-2.248-1.066q-3.133-1.554-5.766-2.64a84.368 84.368 0 0 1-2.207-.922 2.727 2.727 0 0 1 .454-1.194ZM120.098 38.72a3.23 3.23 0 0 0-.893.074l-.44.126a.9.9 0 0 1-.16.006.1.1 0 0 0-.1-.057l-.495-1.036-.006-.143c1.729-1.09 12.13-4.956 13.108-4.922.382.522.533.933.426 1.234-2.235.694-2.883 2.35-1.914 4.976.072.221.26.701.544 1.439a378.218 378.218 0 0 1 3.552 9.353 9.642 9.642 0 0 0 1.777 3.344 3.905 3.905 0 0 0 1.279.877 1.658 1.658 0 0 0 .765.165 2.696 2.696 0 0 1 .817-.17 1.816 1.816 0 0 1 .506 1.333c-.063.029-1.06.369-3.006 1.034-1.76.6-3.749 1.358-5.95 2.27a15.036 15.036 0 0 1-1.623.623 2.62 2.62 0 0 1-.53-1.19l.552-.487c.57-.506.753-2.284.219-3.583-.479-1.148-1.817-4.232-4.007-9.288-.052-.119-.454-1.075-1.214-2.858a6.321 6.321 0 0 0-1.205-1.973 3.183 3.183 0 0 0-2.002-1.147ZM251.787 144.31a85.939 85.939 0 1 1-85.938-85.936 85.943 85.943 0 0 1 85.938 85.936Z" fill="#ffd200"></path><path d="M156.2 219.304a5.171 5.171 0 0 0 .783.054c.558-.2.841-.875.841-2.02 0-15.047-.004-54.54.093-54.748l.32-.7s2.081-5.14 3.883-9.16a1.605 1.605 0 0 1 .282.346 37.179 37.179 0 0 1 1.006 3.744c.401 1.647 15.092 59.388 15.092 59.388.231.942.353 1.45.377 1.507a1.754 1.754 0 0 0 1.962.978c1.529-.174 9.63-2.51 10.506-3.294a2.142 2.142 0 0 0 .466-2.168l-.193-.742c-1.948-7.846-19.44-76.696-20.283-79.67l-.214-.745c-.09-.349 21.089-50.554 22.908-55.05.433-1.056.507-1.8.24-2.225-.62-.954-10.49-4.591-11.769-3.966a4.035 4.035 0 0 0-1.167 1.898c-.506 1.26-22.17 52.423-22.668 53.54l-.323.697-.272.711c-.029.069-.118.12-.3.158.005-.195-.177-57.153-.206-57.351a1.424 1.424 0 0 0-1.621-1.278 67.684 67.684 0 0 0-11.465 2.775c-.572.428-.64 1.26-.64 3.042 0 7.165.145 134.903.116 135.975-.104 2.889-.023 4.537.208 4.919.75 1.22 9.946 3.202 12.038 3.385ZM197.583 210.776c1.619.3 9.96-3.349 16.564-8.424 4.279-3.294 5.344-4.139 7.856-7.301q6.54-8.223 6.562-20.394 0-26.19-.142-27.204a12.858 12.858 0 0 0-12.299-11.69c-.759-.02-2.166-.029-4.181-.029a3.575 3.575 0 0 1-3.42-1.987 5.74 5.74 0 0 1-.382-2.51q-.182-30.106-.05-31.06a2.431 2.431 0 0 1 4.203-1.472 61.052 61.052 0 0 1 8.573 11.446 80.509 80.509 0 0 1 2.043 3.715 4.704 4.704 0 0 0 1.511 1.96 2.465 2.465 0 0 0 3.547-1.392c.535-1.43 1.496-11.148-1.11-15.324-2.98-4.78-11.31-13.675-15.013-15.495-6.89-3.37-15.3 1.866-15.3 9.466q0 43.057.12 43.897a12.53 12.53 0 0 0 6.62 10.006 13.425 13.425 0 0 0 6.33 1.42l.83.018c.69.011 1.508.02 2.465.02a3.65 3.65 0 0 1 3.818 2.563q.3.861.26 13.508 0 5.085-.005 7.604c0 8.695-.309 9.645-1.62 12.452-1.5 3.199-2.923 4.993-8.473 8.91a41.99 41.99 0 0 1-8.623 4.86c-1.223.463-1.828.956-1.828 1.461v10.066c0 .246.226.488.667.742a1.771 1.771 0 0 0 .477.168ZM102.359 184.228v-80.471a70.898 70.898 0 0 1 7.866-10.646c3.76-4.118 6.614-6.68 8.529-7.724 6.984-3.77 15.001 1.648 15.684 8.964q.178 1.822.175 53.576a17.374 17.374 0 0 1-.99 6.623q-3.027 7.032-10.988 7.037-8.987 0-8.992.064v35.615c0 .11-.119.246-.345.422a.767.767 0 0 1-.718.146c-1.03-.26-10.221-11.57-10.221-13.606m17.723-85.691a69.133 69.133 0 0 0-6.497 7.821v41.518l.064 1.393h6.858a3.417 3.417 0 0 0 2.818-3.28l-.047-46.616a1.873 1.873 0 0 0-1.766-1.617 2.414 2.414 0 0 0-1.43.78Z"></path><path class="yellow" d="m112.467 227.685-.205.039c-.075.02-1.435 1.971-4.08 5.878-2.04 3.016-3.075 4.544-3.112 4.616-.906 1.893-.64 3.404.776 4.584a6.147 6.147 0 0 1-.77 1.192c-.605.056-6.994-4.577-7.052-4.633a6.046 6.046 0 0 1 .766-1.208q2.502.796 4.492-2.048c3.272-4.667 5.538-7.843 6.807-9.584 1.603-2.2 2.098-3.882 1.432-5.08l-.182-.342c-.084-.17.149-.488.694-.97.116.051 1.18.767 3.233 2.117a73.32 73.32 0 0 0 2.595 1.685l.677.39c.074.044.52 1.826 1.308 5.295 1.512 6.7 2.517 10.496 2.996 11.34q.316-.407 2.69-5.582 2.22-4.795-.172-6.056a1.565 1.565 0 0 1 .477-1.014c.035 0 1.276.51 3.724 1.54.18.076.907.36 2.15.842q.976.4 1.4.624a1.338 1.338 0 0 1-.267.858l-.203.306v.16c-.455-.403-2.762-.608-4.104 2.168q-.016.043-4.523 10.905c-1.645 3.99-2.543 6.182-2.678 6.55a18.366 18.366 0 0 1-2.621-1.05l-6.146-23.483c-.006-.04-.047-.057-.102-.04ZM76.404 206.9a.527.527 0 0 1 .14-.029 1.556 1.556 0 0 1 .439 1.007c-2.22 1.731-1.696 8.116 2.366 10.515 3.092 1.816 5.265-.533 5.125-2.665a9.283 9.283 0 0 0-2-4.409 21.701 21.701 0 0 1-2.399-3.767c-1.739-4.99 2.902-9.956 9.388-7.64 4.65 1.662 8.423 6.87 8.993 10.377-.552.376-4.45 2.45-5.11 2.677-.306-.393-.394-.632-.293-.739l.563-.586c1.785-1.78.447-7.436-3.515-8.612-2.793-.827-5.416 2.388-1.925 6.616a14.738 14.738 0 0 1 2.752 4.463c1.829 5.745-3.758 10.836-11.025 7.535a15.435 15.435 0 0 1-7.572-7.593 14.727 14.727 0 0 1-1.198-4.179 23.6 23.6 0 0 1 2.598-1.54c1.75-.945 2.633-1.426 2.673-1.431ZM142.235 234.117c6.88.15 11.916 4.97 12.04 6.699a68.302 68.302 0 0 0-3.205 4.678c-.22.016-.45-.132-.69-.482.688-5.651-4.255-11.45-10.261-6.735-4.862 3.819-6.291 14.278-.937 17.243 2.152 1.176 6.95 1.294 9.721-3.877l1.37.378a.255.255 0 0 0 .009.146l.05.07-.281 5.39c-4.225 2.734-14.593 1.909-19.077-6.304a11.447 11.447 0 0 1 1.772-13.577 13.688 13.688 0 0 1 9.489-3.629ZM156.346 236.623l.636.014.805.078a92.62 92.62 0 0 0 16.051.185c1.087-.09 1.65-.139 1.684-.127a63.066 63.066 0 0 1 2.22 6.143c-.743.47-1.177.667-1.28.548l-.58-.558a11.253 11.253 0 0 0-5.68-3.022c-.928-.183-5.77-.823-5.823 1.295l-.153 5.889c-.006.22.205.467.633.739a7.66 7.66 0 0 0 5.797-.862 22.827 22.827 0 0 0 1.802-1.476 3.125 3.125 0 0 1 .595-.463 1.169 1.169 0 0 1 .793-.034c.159 2.178.237 3.873.277 5.083.03.92.068 1.77.103 2.536a3.188 3.188 0 0 1-1.31.098l-.63-.615c-3.223-3.18-7.397-2.24-8.025-1.073a23.82 23.82 0 0 0-.165 5.61c1.435 4.261 10.273 3.764 14.882-3.692a2.66 2.66 0 0 1 .852.5 63.923 63.923 0 0 1-1.622 6.972q-1.212.646-9.695.752c-5.936.082-13.597-.425-14.82-.845a4.869 4.869 0 0 0 .217-1.13c2.113-.108 3.272-1.309 3.502-3.618q1.162-12.005 1.08-14.058c-.11-2.134-.877-3.394-2.33-3.752a3.08 3.08 0 0 1 .184-1.117ZM87.134 228.507a3.113 3.113 0 0 1 .527.196c1.43.578 2.79.111 4.085-1.382 1.452-1.678 4.046-4.575 7.804-8.724a10.606 10.606 0 0 0 2.248-3.121 3.555 3.555 0 0 0 .176-1.532c-.005-.019-.156-.337-.428-.99a5.516 5.516 0 0 1 .728-.828l.154.004.596.538q3.448 3.094 4.86 4.2c1.07.837 1.699 1.345 1.878 1.505.035.21-.19.528-.683.95q-2.5-.253-4.66 2.38-.998 1.202-6.599 7.673a21.113 21.113 0 0 0-2.374 3.08c-.403.787-.557 2.604-.023 3.148l.304.313c.134.144-.63.966-.678 1.01-.535.06-8.91-7.055-8.847-7.472a7.082 7.082 0 0 1 .932-.948ZM195.769 231.968v.151l.292.72c.374.91 4.712 12.532 5.659 15.357.696 2.027 1.522 3.311 2.501 3.83a3.149 3.149 0 0 0 2.312.147 5.296 5.296 0 0 0 .243.72l.147.356.11.312a91.34 91.34 0 0 1-12.19 3.881 13.64 13.64 0 0 0-.231-.929l-.111-.41.147-.002a2.619 2.619 0 0 0 1.361-1.151c.536-.938.536-2.316-.021-4.139q-3.253-10.673-3.552-11.157a2.613 2.613 0 0 0-3.357-1.218 2.035 2.035 0 0 1-.28-1.07 55.52 55.52 0 0 0 5.755-4.393 6.41 6.41 0 0 1 1.215-1.005ZM215.877 234.117l2.258-.103c1.568-.075 6.975 1.37 5.491 7.654-2.042 8.708-15.762 12.425-17.805 5.411q-.83-2.853 1.57-6.09c.326-.453.483-.71.456-.787a22.156 22.156 0 0 0-1.542-.224c-7.308-.833-6.079-8.633-.472-12.177 4.938-3.124 10.685-2.348 11.257 1.968a6.147 6.147 0 0 1-.742 3.374l-.47.664v.31m-1.584 13.07c4.338.42 6.743-5.124 3.142-7.084a3.865 3.865 0 0 0-2.242-.323 50.668 50.668 0 0 1-3.887.236 4.51 4.51 0 0 0 2.987 7.172m-4.951-12.444a5.31 5.31 0 0 0 2.338-.35c2.062-5.88-4.16-7.35-6.007-3.423a2.406 2.406 0 0 0 .563 3.123c.491.456 1.532.676 3.105.65ZM226.194 229.043l-.353.036c-3.708.459-5.834-.807-6.362-3.826-.988-5.539 6.013-12.254 11.752-10.455a4.15 4.15 0 0 1 2.848 5.37 8.133 8.133 0 0 1-.301.904c-.29.782-.411 1.146-.33 1.114l.949-.277c4.542-1.38 10.507 1.16 7.79 8.655-2.62 7.282-13.387 10.873-16.618 5.853-1.153-1.763-1.066-3.898.243-6.394.346-.653.47-.964.382-.98m7.147 5.458c3.767.57 6.417-3.855 4.367-6.308a3.31 3.31 0 0 0-3.686-.948l-.785.208-.801.188a16.461 16.461 0 0 0-2.364.637c-1.507 1.04-.567 5.62 3.27 6.223m-8.129-10.71a11.523 11.523 0 0 0 3.456-.45l.755-.144a1.63 1.63 0 0 0 .564-.43q.289-3.837-2.03-4.807a3.799 3.799 0 0 0-4.832 2.963 2.567 2.567 0 0 0 2.087 2.867ZM240.343 199.612c.2-.033 3.72 2.698 10.51 8.18a8.32 8.32 0 0 0 1.92 1.284 5.452 5.452 0 0 0 .552-4.832 48.647 48.647 0 0 1-.2-.658 2.961 2.961 0 0 1 1.312-.487c.39.646 1.072 2.05 2.06 4.236a16.432 16.432 0 0 1 .879 2.184 1.838 1.838 0 0 0-.574.224l-.213.186-.687-.038c-.246-.015-1.212.463-1.148.91a7.673 7.673 0 0 0 2.638 1.754 2.622 2.622 0 0 0 2.575-.975 4.638 4.638 0 0 1 .855.627c.008.215-1.143 1.762-3.449 4.621a44.478 44.478 0 0 1-4.261 4.796 5.674 5.674 0 0 1-.988-.83c0-.112.011-.175.046-.212l.425-.468a2.382 2.382 0 0 0 .301-2.524 8.535 8.535 0 0 0-1.066-1.097 7.926 7.926 0 0 0-1.196-.953.286.286 0 0 1-.16.017c-2.815 3.05-4.82 5.14-5.992 6.236-.684.64-1.07.988-1.144 1.085l-.205-.006c-.034-.017-.967-.928-1.075-1.079a2.442 2.442 0 0 1-.365-.636l-.08-.771c-.021-.177-.124-.943-.292-2.306q-2.182-17.015-2.03-17.205l.348-.42.34-.432a2.08 2.08 0 0 1 .364-.41m3.679 19.031.198.005q1.309-1.211 4.42-4.704c-.416-.586-5.613-4.952-5.63-4.952-.154-.018-.237-.009-.27.036q-.045.072.812 7.26a10.027 10.027 0 0 0 .47 2.355ZM74.294 129.376a12.707 12.707 0 0 0-6.291 1.07 10.72 10.72 0 0 0-5.91 5.19h-.051a23.409 23.409 0 0 1 1.168-6.212c.306-.643 1.225-1.285 1.805-2.007 5.593-6.959 2.967-12.062 1.043-14.196-.55-.027-5.162 1.535-6.317 7.412a14.6 14.6 0 0 0 .755 6.92 5.444 5.444 0 0 1 .221 3.17c-.418 2.657-.547 4.123-.63 4.343l-.045.052a.1.1 0 0 1-.059-.07 10.627 10.627 0 0 0-4.6-7.388 12.867 12.867 0 0 0-4.739-2.406c-.03.048-.691 2.567 1.81 7.33a13.412 13.412 0 0 0 7.35 5.89c-.163 3.231-.101 4.591-.09 4.805l.163 5.205h-.169c-2.598-7.853-10.263-9.077-11.727-9.132-.057.062-.133 4.371 3.938 8.452a16.74 16.74 0 0 0 8.243 4.23c.22 4.657-.272 7.578.868 8.547.05.048 1.247-.058 1.305-.025.16.018.585-.02.661-.12a2.786 2.786 0 0 0 .117-1.074l-.09-2.808-.652-4.534a9.897 9.897 0 0 1 1.587-.496c5.11-1.33 9.62-4.92 11.046-9.936.196-.67.236-1.025.143-1.06a15.793 15.793 0 0 0-5.856 1.333 13.654 13.654 0 0 0-6.068 5.397c-.447.74-.724 1.182-.85 1.339l-.165.005c-.012-.027-.026-.036-.062-.053-.164-.506-.392-8.135 0-9.81 5.54-1.28 7.354-1.869 10.44-5.62.645-.766 1.91-3.636 1.708-3.743ZM257.39 129.376a12.665 12.665 0 0 1 6.281 1.07 10.673 10.673 0 0 1 5.914 5.19h.055a23.371 23.371 0 0 0-1.172-6.212c-.3-.643-1.222-1.285-1.81-2.007-5.587-6.959-2.958-12.062-1.038-14.196.542-.027 5.165 1.535 6.32 7.412a14.554 14.554 0 0 1-.758 6.92 5.6 5.6 0 0 0-.22 3.17c.42 2.657.55 4.123.63 4.343l.052.052a.09.09 0 0 0 .051-.07 10.594 10.594 0 0 1 4.604-7.388 12.796 12.796 0 0 1 4.74-2.406c.028.048.688 2.567-1.815 7.33a13.456 13.456 0 0 1-7.343 5.89c.158 3.231.093 4.591.093 4.805l-.165 5.205h.165c2.607-7.853 10.263-9.077 11.734-9.132.052.062.125 4.371-3.943 8.452a16.737 16.737 0 0 1-8.247 4.23c-.227 4.657.268 7.578-.873 8.547-.042.048-1.243-.058-1.3-.025-.154.018-.588-.02-.66-.12a2.917 2.917 0 0 1-.116-1.074l.087-2.808.65-4.534a9.987 9.987 0 0 0-1.572-.496c-5.12-1.33-9.628-4.92-11.064-9.936-.187-.67-.23-1.025-.142-1.06a15.823 15.823 0 0 1 5.861 1.333 13.661 13.661 0 0 1 6.069 5.397c.444.74.727 1.182.847 1.339l.164.005c.011-.027.024-.036.07-.053a57.522 57.522 0 0 0 0-9.81c-5.55-1.28-7.354-1.869-10.443-5.62-.638-.766-1.918-3.636-1.707-3.743Z" fill="#ffd200"></path><path d="M326.071 58.27h53.008v64.903l55.445-64.903h70.471l-62.426 64.646 65.279 107.104h-65.29l-35.93-70.322-27.55 28.912v41.41h-53.007ZM515.608 58.27h47.566v32.471h-47.566Zm0 47.28h47.566v124.47h-47.566ZM723.302 179.607h-95.705q1.298 11.556 6.246 17.212 6.935 8.14 18.122 8.135a27.297 27.297 0 0 0 13.415-3.52q3.888-2.239 8.364-7.871l46.989 4.271q-10.775 18.747-26.032 26.894-15.249 8.139-43.742 8.142-24.758 0-38.943-6.98-14.191-6.974-23.52-22.161-9.313-15.182-9.319-35.706 0-29.199 18.69-47.26 18.694-18.055 51.616-18.057 26.72 0 42.181 8.092a54.623 54.623 0 0 1 23.552 23.442q8.08 15.362 8.086 39.976Zm-48.42-22.782q-1.42-13.908-7.47-19.91-6.063-6.015-15.936-6.01a21.69 21.69 0 0 0-18.24 9.07q-4.34 5.658-5.523 16.851ZM722.284 105.55h46.088l20.026 78.51 25.56-78.51h42.704l26.291 78.328 19.983-78.327h45.785l-45.733 124.47h-42.34l-25.143-74.892-24.383 74.892H768.46ZM956.014 58.27h47.568v32.471h-47.568Zm0 47.28h47.568v124.47h-47.568ZM1083.082 58.27v47.28h26.173v35.038h-26.173v44.148q0 7.97 1.519 10.54 2.339 3.987 8.178 3.986c3.498 0 10.167-1.607 16.476-3.634v33.766a139.258 139.258 0 0 1-31.28 3.476q-17.791 0-26.233-4.56a27.796 27.796 0 0 1-12.466-13.861q-4.045-9.302-4.039-30.118v-43.743h-17.659v-35.037h17.659V82.728Z"></path></svg>