<svg version="1.1" id="Layer_1" xmlns="http://www.w3.org/2000/svg" xmlns:xlink="http://www.w3.org/1999/xlink" x="0px" y="0px" viewBox="0 0 350.7 64.9" style="enable-background:new 0 0 350.7 64.9;" xml:space="preserve">
 <style type="text/css">
  .st0{fill-rule:evenodd;clip-rule:evenodd;}
 </style>
 <g>
  <path class="st0" d="M27.9,60.5l13.8-24l-9.4,0l4.6-8.1l22,0l-4.7,8.1l-7.9,0l-14,24.4C48,60.8,60.8,48,60.8,32.4
		C60.8,16.8,48,4.1,32.4,4.1c-1.1,0-2.3,0.1-3.4,0.2l-14,24.1h17.3l-4.7,8.1H5.8l17.9-31C12.3,9.1,4,19.9,4,32.4
		C4,46.5,14.4,58.3,27.9,60.5 M32.4,0c17.8,0,32.5,14.6,32.5,32.4c0,17.9-14.6,32.5-32.5,32.5C14.6,64.9,0,50.3,0,32.4
		C0,14.6,14.6,0,32.4,0">
  </path>
  <path class="st0" d="M333.1,32.4c0.8-3.8,3.5-7.7,8-7.7c4.5,0,5.5,3.9,4.6,7.7c-0.8,3.9-3.4,7.8-8,7.8
		C333.1,40.2,332.2,36.3,333.1,32.4 M328.4,32.4c-1.4,6.6,1.4,11.2,8.6,11.2c7.1,0,12-4.7,13.5-11.2c1.4-6.5-1.6-11.1-8.6-11.1
		C334.6,21.3,329.8,25.7,328.4,32.4 M308.9,43.2h4.5l1.9-9h1.5c1.9,0,2.3,0.6,2.6,2.2l1.2,6.7h5l-1.8-8.5c-0.2-1-0.7-2.1-1.9-2.2
		l0-0.1c3-0.4,5.2-2.5,5.7-5c1.3-6-4.5-5.9-9.3-5.9h-4.9L308.9,43.2z M317.4,25h1.5c2.3,0,4.7,0.2,4.2,2.8c-0.6,2.7-3.2,3-5.4,3
		h-1.5L317.4,25z M290.3,43.2h7.9c2.8,0,8.1-0.8,9.3-6.3c0.6-2.7-1.1-4.6-4.1-4.9l0-0.1c2.8-0.5,5-2.3,5.5-4.8
		c1-4.7-3.1-5.5-6.1-5.5H295L290.3,43.2z M298.7,25h1.7c2.1,0,4.3,0.2,3.8,2.7c-0.5,2.2-2.9,2.6-4.8,2.6h-1.8L298.7,25z M296.9,33.6
		h2.1c2.3,0,4.5,0.4,3.9,3.3c-0.5,2.5-3.2,3-5.3,3h-2.1L296.9,33.6z M270.2,35.4c-1.3,5.8,1.6,8.2,7.4,8.2c5.8,0,9.7-2.4,11-8.2
		l3-13.8H287l-2.7,12.5c-0.8,3.7-2.5,6.1-6,6.1c-3.4,0-4.2-2.4-3.4-6.1l2.7-12.5h-4.5L270.2,35.4z M251.1,32.4
		c0.8-3.8,3.5-7.7,8-7.7c4.5,0,5.5,3.9,4.6,7.7c-0.8,3.9-3.4,7.8-8,7.8C251.1,40.2,250.3,36.3,251.1,32.4 M246.4,32.4
		c-1.4,6.6,1.4,11.2,8.6,11.2c7.1,0,12-4.7,13.5-11.2c1.4-6.5-1.6-11.1-8.6-11.1C252.7,21.3,247.9,25.7,246.4,32.4 M234.6,43.2h4.5
		l4-18.2h6.4l0.7-3.4h-17.4l-0.7,3.4h6.4L234.6,43.2z M212.8,31.9c2.7-1.4,4.9-2.8,5.6-5.7c0.8-3.5-2.3-4.9-5.4-4.9
		c-3.2,0-7.2,1.6-7.9,4.9c-0.5,2.5,0.6,3.6,2,5.2c-3.9,1.5-5.5,3.3-6,5.9c-0.9,4.1,2.2,6.3,6.7,6.3c2.2,0,4.7-0.7,6.6-2.3l1.1,1.9
		h5.5l-3.1-4.3c2.3-2.1,3.7-4.6,4.5-7.4h-3.9c-0.4,1.7-1.1,3.5-2.4,4.7L212.8,31.9z M210.8,29.6c-0.7-0.8-1.7-1.9-1.5-3.1
		c0.3-1.6,1.8-2.3,3.1-2.3c1.3,0,2.3,0.7,2,2.2C214.2,27.8,212.1,29.1,210.8,29.6 M212.8,39.1c-1.2,0.9-2.7,1.3-4.2,1.3
		c-2.1,0-3.5-1.3-3.1-3.2c0.4-1.7,1.8-2.7,3.5-3.5L212.8,39.1z M168.7,43.2h4.3l3.5-16.2h0.1l5.1,16.2h5.5l4.7-21.6h-4.3l-3.5,16.2
		H184L179,21.6h-5.5L168.7,43.2z M152,43.2h13.3l0.7-3.4h-8.8l1.3-6.1h8l0.7-3.4h-8l1.2-5.3h8.8l0.7-3.4h-13.3L152,43.2z M152.8,22
		c-1.5-0.5-3.3-0.8-5.2-0.8c-4,0-8.2,1.8-9.3,6.6c-1.6,7.2,8.7,5.5,7.8,9.6c-0.4,2-2.9,2.8-4.6,2.8c-1.8,0-3.4-0.5-4.8-1.3l-1.3,3.9
		c2.1,0.5,3.1,0.8,5.6,0.8c4.5,0,8.8-1.8,9.9-6.5c1.6-7.2-8.6-5.7-7.8-9.4c0.5-2.4,2.7-3,4.2-3c1.6,0,3.1,0.3,4.4,0.9L152.8,22z
		 M117.5,43.2h4.5l1.9-9h1.5c1.9,0,2.3,0.6,2.6,2.2l1.2,6.7h5l-1.8-8.5c-0.2-1-0.7-2.1-1.9-2.2l0-0.1c2.9-0.4,5.2-2.5,5.7-5
		c1.3-6-4.5-5.9-9.3-5.9h-4.9L117.5,43.2z M126,25h1.5c2.3,0,4.7,0.2,4.2,2.8c-0.6,2.7-3.2,3-5.4,3h-1.5L126,25z M94.6,43.2h4.7l3-5
		h9.1l0.9,5h5l-4.1-21.6h-5.1L94.6,43.2z M110.9,34.9h-6.6l5.2-8.9h0.1L110.9,34.9z M81.1,43.2h13.2l0.7-3.4h-8.7l4-18.2h-4.5
		L81.1,43.2z">
  </path>
 </g>
</svg>