<?xml version="1.0" encoding="UTF-8" standalone="no"?>
<!-- Created with Inkscape (http://www.inkscape.org/) -->
<svg
   xmlns:svg="http://www.w3.org/2000/svg"
   xmlns="http://www.w3.org/2000/svg"
   version="1.0"
   width="1033.5826"
   height="318.5433"
   id="svg2">
  <defs
     id="defs4">
    <clipPath
       id="clipPath2438">
      <path
         d="M 0.177,841 L 594.824,841 L 594.824,0 L 0.177,0 L 0.177,841 z"
         id="path2440" />
    </clipPath>
  </defs>
  <g
     transform="translate(63.412134,-295.19512)"
     id="layer1">
    <g
       transform="translate(35.435358,35.462302)"
       id="g2531">
      <path
         d="M -26.912024,496.69607 C -29.724244,491.68497 -34.461304,488.86623 -40.222754,488.86623 C -48.046074,488.86623 -55.458324,493.88385 -55.458324,502.24873 C -55.458324,509.45871 -50.101404,512.82554 -44.202924,515.35719 L -40.640344,516.87095 C -36.170814,518.72402 -31.714334,521.12517 -31.714334,526.67783 C -31.714334,532.09999 -35.687974,536.7718 -41.253684,536.7718 C -46.812874,536.7718 -51.341134,532.64808 -51.269354,526.9584 L -57.794224,528.32862 C -56.691524,536.63478 -50.173174,542.81382 -41.795254,542.81382 C -32.536464,542.81382 -25.261234,536.08669 -25.261234,526.67783 C -25.261234,518.03891 -30.748654,513.98696 -38.095654,511.1095 L -41.795254,509.6675 C -45.025054,508.42778 -49.005224,506.3072 -49.005224,502.24873 C -49.005224,497.727 -44.476974,494.90825 -40.359774,494.90825 C -36.444854,494.90825 -33.978464,496.55904 -32.060144,499.78885 L -26.912024,496.69607 z M 23.707886,488.86623 C 8.8833857,488.86623 -3.3964143,501.01553 -3.3964143,515.84003 C -3.3964143,531.21261 8.7463657,542.81382 23.707886,542.81382 C 38.662886,542.81382 50.818706,531.21261 50.818706,515.84003 C 50.818706,501.01553 38.532386,488.86623 23.707886,488.86623 z M 23.707886,536.7718 C 12.524266,536.7718 3.0566857,527.64351 3.0566857,515.84003 C 3.0566857,504.44761 11.565106,494.90825 23.707886,494.90825 C 35.857186,494.90825 44.365616,504.44761 44.365616,515.84003 C 44.365616,527.64351 34.891506,536.7718 23.707886,536.7718 z M 110.42989,492.37008 C 106.5215,489.96893 101.91494,488.86623 97.386686,488.86623 C 82.151116,488.86623 69.871316,500.81326 69.871316,516.11407 C 69.871316,531.07559 82.092396,542.81382 96.838596,542.81382 C 101.36685,542.81382 106.44972,541.50233 110.42989,539.16642 L 110.42989,531.5519 C 106.58022,534.98398 101.71267,536.90882 96.636326,536.90882 C 85.106886,536.90882 76.317886,527.23244 76.317886,515.90527 C 76.317886,504.44761 85.172126,494.77123 96.773346,494.77123 C 101.6409,494.77123 106.71724,496.55904 110.42989,499.8541 L 110.42989,492.37008 z M 146.21226,489.96893 L 139.75917,489.96893 L 139.75917,541.71112 L 146.21226,541.71112 L 146.21226,489.96893 z M 178.43858,541.71112 L 206.22799,541.71112 L 206.22799,535.81264 L 184.88515,535.81264 L 184.88515,516.25109 L 205.60812,516.25109 L 205.60812,510.35261 L 184.88515,510.35261 L 184.88515,495.86741 L 206.22799,495.86741 L 206.22799,489.96893 L 178.43858,489.96893 L 178.43858,541.71112 z M 246.55166,495.86741 L 258.83799,495.86741 L 258.83799,489.96893 L 227.81877,489.96893 L 227.81877,495.86741 L 240.10509,495.86741 L 240.10509,541.71112 L 246.55166,541.71112 L 246.55166,495.86741 z M 307.93108,528.73969 L 313.82956,541.71112 L 320.7655,541.71112 L 296.06235,487.77657 L 271.3592,541.71112 L 278.28861,541.71112 L 284.18709,528.73969 L 307.93108,528.73969 z M 305.24936,522.84121 L 286.86229,522.84121 L 296.06235,501.90944 L 305.24936,522.84121 z M 368.22738,496.69607 C 365.42168,491.68497 360.6781,488.86623 354.91665,488.86623 C 347.09986,488.86623 339.68761,493.88385 339.68761,502.24873 C 339.68761,509.45871 345.038,512.82554 350.93648,515.35719 L 354.50558,516.87095 C 358.96859,518.72402 363.42507,521.12517 363.42507,526.67783 C 363.42507,532.09999 359.4449,536.7718 353.88572,536.7718 C 348.32653,536.7718 343.79827,532.64808 343.87005,526.9584 L 337.35171,528.32862 C 338.44788,536.63478 344.96623,542.81382 353.33763,542.81382 C 362.60294,542.81382 369.87817,536.08669 369.87817,526.67783 C 369.87817,518.03891 364.39075,513.98696 357.04375,511.1095 L 353.33763,509.6675 C 350.11435,508.42778 346.13418,506.3072 346.13418,502.24873 C 346.13418,497.727 350.66243,494.90825 354.77962,494.90825 C 358.69454,494.90825 361.16094,496.55904 363.08578,499.78885 L 368.22738,496.69607 z M 433.65219,541.71112 L 461.43509,541.71112 L 461.43509,535.81264 L 440.09229,535.81264 L 440.09229,516.25109 L 460.82179,516.25109 L 460.82179,510.35261 L 440.09229,510.35261 L 440.09229,495.86741 L 461.43509,495.86741 L 461.43509,489.96893 L 433.65219,489.96893 L 433.65219,541.71112 z M 487.62589,489.96893 L 487.62589,522.70419 C 487.62589,534.0966 494.69889,542.81382 506.56759,542.81382 C 518.43629,542.81382 525.50929,534.0966 525.50929,522.70419 L 525.50929,489.96893 L 519.05619,489.96893 L 519.05619,520.50531 C 519.05619,528.94848 516.51799,536.7718 506.56759,536.7718 C 496.61719,536.7718 494.07899,528.94848 494.07899,520.50531 L 494.07899,489.96893 L 487.62589,489.96893 z M 570.08719,519.20686 C 577.56469,518.31295 582.50399,512.14043 582.50399,504.72165 C 582.50399,499.78885 580.03759,494.90825 575.71159,492.37008 C 571.59439,490.03418 566.65509,489.96893 562.06159,489.96893 L 554.23829,489.96893 L 554.23829,541.71112 L 560.69139,541.71112 L 560.69139,519.82019 L 563.35999,519.82019 L 578.59559,541.71112 L 586.41889,541.71112 L 570.08719,519.20686 z M 560.69139,495.73039 L 562.40739,495.73039 C 568.78869,495.73039 576.46849,496.89834 576.46849,505.00222 C 576.46849,513.23008 569.33029,514.46328 562.74019,514.46328 L 560.69139,514.46328 L 560.69139,495.73039 z M 633.41749,488.86623 C 618.59959,488.86623 606.31319,501.01553 606.31319,515.84003 C 606.31319,531.21261 618.46249,542.81382 633.41749,542.81382 C 648.38559,542.81382 660.52839,531.21261 660.52839,515.84003 C 660.52839,501.01553 648.24859,488.86623 633.41749,488.86623 z M 633.41749,536.7718 C 622.24039,536.7718 612.76629,527.64351 612.76629,515.84003 C 612.76629,504.44761 621.27479,494.90825 633.41749,494.90825 C 645.56679,494.90825 654.07529,504.44761 654.07529,515.84003 C 654.07529,527.64351 644.60119,536.7718 633.41749,536.7718 z M 691.66499,520.02247 L 695.36459,520.02247 C 705.17799,520.02247 713.48419,515.84003 713.48419,504.93045 C 713.48419,495.45634 708.54489,489.96893 692.62419,489.96893 L 685.21189,489.96893 L 685.21189,541.71112 L 691.66499,541.71112 L 691.66499,520.02247 z M 691.66499,495.73039 L 693.37449,495.73039 C 699.75589,495.73039 707.44219,496.69607 707.44219,504.79343 C 707.44219,513.02781 700.30389,514.26101 693.71379,514.26101 L 691.66499,514.26101 L 691.66499,495.73039 z M 767.31429,528.73969 L 773.21279,541.71112 L 780.14219,541.71112 L 755.43909,487.77657 L 730.73589,541.71112 L 737.67189,541.71112 L 743.57029,528.73969 L 767.31429,528.73969 z M 764.63909,522.84121 L 746.25209,522.84121 L 755.43909,501.90944 L 764.63909,522.84121 z M 800.85209,541.71112 L 828.64159,541.71112 L 828.64159,535.81264 L 807.29869,535.81264 L 807.29869,516.25109 L 828.02819,516.25109 L 828.02819,510.35261 L 807.29869,510.35261 L 807.29869,495.86741 L 828.64159,495.86741 L 828.64159,489.96893 L 800.85209,489.96893 L 800.85209,541.71112 z M 886.12559,528.73969 L 892.02409,541.71112 L 898.95349,541.71112 L 874.25039,487.77657 L 849.54719,541.71112 L 856.48319,541.71112 L 862.38159,528.73969 L 886.12559,528.73969 z M 883.44389,522.84121 L 865.05029,522.84121 L 874.25039,501.90944 L 883.44389,522.84121"
         id="path2450"
         style="fill:#000000;fill-opacity:1;fill-rule:nonzero;stroke:none" />
      <path
         d="M 46.877686,308.58416 L 30.526376,338.93784 C 26.709326,335.89725 22.481216,333.48958 17.835506,331.69524 C 13.196326,329.90743 8.3287757,328.99394 3.2654757,328.94827 C -0.77341429,328.94827 -4.6491843,329.99877 -8.3748843,332.09978 C -12.094054,334.19426 -14.090664,337.33925 -14.345134,341.53474 C -14.253784,344.4383 -13.209804,346.81335 -11.200154,348.67947 C -9.2035443,350.53905 -6.7958643,352.03325 -4.0032243,353.15553 C -1.2105743,354.29085 1.4254657,355.21086 3.8918657,355.90902 L 14.377326,358.91046 C 25.632726,361.8075 34.884986,366.39448 42.134106,372.66488 C 49.383236,378.93527 53.128506,388.06356 53.376456,400.04974 C 53.480856,407.65774 52.325956,415.01126 49.918276,422.11684 C 47.510596,429.22242 43.210716,435.38189 37.025136,440.58874 C 30.735166,445.54764 23.701366,449.16241 15.923726,451.42654 C 8.1395557,453.69067 0.22489571,454.80642 -7.8463643,454.7738 C -17.868564,454.72812 -27.603664,453.21436 -37.045144,450.23249 C -46.493154,447.23758 -55.275624,443.02904 -63.412134,437.60035 L -45.801514,406.03957 C -40.666444,410.45038 -35.055064,414.11735 -28.980414,417.05354 C -22.886184,419.98321 -16.341744,421.5035 -9.3209843,421.61443 C -4.2707443,421.64705 0.25751571,420.43995 4.2637857,417.99965 C 8.2570057,415.55283 10.377586,411.70315 10.599426,406.44411 C 10.455886,402.80976 8.9551657,399.8801 6.0907457,397.63554 C 3.2263257,395.39751 -0.12745429,393.62927 -3.9705943,392.34387 C -7.8072243,391.05195 -11.265394,390.02102 -14.345134,389.27066 C -22.990584,387.07831 -30.513754,384.52708 -36.895074,381.61047 C -43.289444,378.68733 -48.241814,374.54404 -51.765244,369.16102 C -55.282144,363.78453 -57.069964,356.30051 -57.122164,346.72201 C -57.037334,336.47797 -54.668814,327.5911 -50.023104,320.04835 C -45.377404,312.49908 -38.976504,306.65933 -30.807374,302.50951 C -22.651294,298.3597 -13.248954,296.25869 -2.6069043,296.19996 C 5.5491857,296.24564 14.038036,297.35487 22.840076,299.5407 C 31.655176,301.73305 39.661186,304.74754 46.877686,308.58416"
         id="path2454"
         style="fill:#e01d22;fill-opacity:1;fill-rule:nonzero;stroke:none" />
      <path
         d="M 126.40277,333.34603 L 126.40277,450.78058 L 85.302626,450.78058 L 85.302626,333.34603 L 51.334176,333.34603 L 51.334176,300.19318 L 160.3647,300.19318 L 160.3647,333.34603 L 126.40277,333.34603 z M 247.89578,389.03577 L 297.58264,450.74143 L 246.42769,450.74143 L 207.63736,392.82671 L 207.21324,392.82671 L 207.21324,450.74143 L 166.11963,450.74143 L 166.11963,300.15403 L 227.55777,300.15403 C 238.06934,300.13446 247.44557,301.75915 255.67995,305.02158 C 263.92086,308.29707 270.42615,313.34731 275.1893,320.18537 C 279.95898,327.02996 282.39275,335.79286 282.49063,346.49364 C 282.45148,357.11612 279.48919,366.32271 273.60376,374.12645 C 267.71833,381.93019 259.15118,386.89561 247.89578,389.03577 z M 207.21324,330.11622 L 207.21324,367.6603 L 211.19993,367.6603 C 215.77387,367.73208 220.23035,367.32101 224.55634,366.43363 C 228.88885,365.53972 232.46447,363.74538 235.30932,361.03104 C 238.14111,358.32322 239.61573,354.27128 239.72013,348.88826 C 239.61573,343.49872 238.14111,339.45331 235.30932,336.74549 C 232.46447,334.03767 228.88885,332.2368 224.55634,331.3429 C 220.23035,330.45551 215.77387,330.04445 211.19993,330.11622 L 207.21324,330.11622"
         id="path2458"
         style="fill:#e01d22;fill-opacity:1;fill-rule:nonzero;stroke:none" />
      <path
         d="M 396.61709,424.61586 L 340.00733,424.61586 L 329.09775,450.78058 L 285.49859,450.78058 L 346.2973,300.19318 L 391.16879,300.19318 L 450.72129,450.78058 L 406.89369,450.78058 L 396.61709,424.61586 z M 385.50522,394.6602 L 368.73631,346.72201 L 368.3122,346.72201 L 351.3345,394.6602 L 385.50522,394.6602 z M 495.18819,388.22016 L 495.18819,420.57697 L 500.43419,420.57697 C 504.66229,420.68137 509.29499,420.5313 514.31259,420.11371 C 519.34979,419.70264 523.69539,418.35852 527.36239,416.10091 C 531.04239,413.84983 532.96069,410.00669 533.14339,404.59105 C 532.97369,398.66647 531.05539,394.56233 527.36889,392.2721 C 523.69539,389.97535 519.27149,388.69647 514.09729,388.42895 C 508.92959,388.15491 504.02289,388.08314 499.39029,388.22016 L 495.18819,388.22016 z M 517.41849,450.53264 L 454.09459,450.53264 L 454.09459,299.94524 L 512.80539,299.94524 C 527.05569,299.77559 538.38939,302.71178 546.82599,308.73423 C 555.25619,314.75669 559.56909,324.87675 559.77139,339.08791 C 559.84309,345.92597 558.54469,351.97452 555.86949,357.24009 C 553.18779,362.49913 548.69209,366.70115 542.36959,369.84613 L 542.36959,370.24415 C 553.62489,371.7514 561.83319,375.87511 567.00739,382.60225 C 572.17509,389.32939 574.73289,397.98788 574.66109,408.58427 C 574.49149,419.0371 571.68579,427.33673 566.25059,433.48316 C 560.81529,439.62958 553.76849,444.02734 545.11649,446.66339 C 536.47109,449.30596 527.23189,450.59788 517.41849,450.53264 z M 495.18819,329.9009 L 495.18819,359.06053 L 499.80779,359.06053 C 505.50409,359.24323 510.56739,358.42109 515.00429,356.56151 C 519.44119,354.70192 521.78359,350.6826 522.02499,344.47745 C 521.94019,339.96224 520.69389,336.66066 518.30579,334.57271 C 515.90469,332.49127 512.89669,331.17325 509.26239,330.61864 C 505.63459,330.06402 501.91539,329.8226 498.12439,329.9009 L 495.18819,329.9009"
         id="path2462"
         style="fill:#e01d22;fill-opacity:1;fill-rule:nonzero;stroke:none" />
      <path
         d="M 683.93959,424.61586 L 627.32329,424.61586 L 616.42029,450.78058 L 572.81459,450.78058 L 633.61329,300.19318 L 678.49129,300.19318 L 738.03729,450.78058 L 694.20969,450.78058 L 683.93959,424.61586 z M 672.82769,394.6602 L 656.05229,346.72201 L 655.63469,346.72201 L 638.64399,394.6602 L 672.82769,394.6602"
         id="path2466"
         style="fill:#e01d22;fill-opacity:1;fill-rule:nonzero;stroke:none" />
      <path
         d="M 817.73199,366.6881 L 899.29929,366.6881 C 899.32539,377.6042 898.33369,387.92654 896.33699,397.64207 C 894.34699,407.37064 889.94269,416.8839 883.15679,426.20793 C 875.30089,436.43892 865.79409,443.936 854.63659,448.69915 C 843.47909,453.4623 831.25149,455.81778 817.94079,455.76558 C 801.25669,455.66118 786.61489,452.29435 774.00229,445.67161 C 761.39629,439.05539 751.55029,429.80313 744.46419,417.92135 C 737.37819,406.03957 733.77649,392.16118 733.65909,376.27965 C 733.76999,359.86961 737.40429,345.6193 744.56209,333.51568 C 751.72639,321.40552 761.70949,312.01624 774.53079,305.3413 C 787.35219,298.67289 802.31369,295.29301 819.41539,295.19513 C 835.74709,295.18861 849.99089,298.69246 862.13369,305.70017 C 874.27649,312.7144 883.79619,323.25859 890.69959,337.33272 L 851.70699,352.90758 C 848.83599,345.62583 844.50999,339.83175 838.70289,335.53839 C 832.90229,331.24502 825.84239,329.04614 817.52319,328.94175 C 808.50579,329.10487 800.94349,331.51254 794.84929,336.16477 C 788.75499,340.81048 784.16149,346.74158 781.07529,353.94503 C 777.98249,361.14849 776.43609,368.65861 776.42959,376.48192 C 776.44259,384.40964 778.04769,391.94586 781.23839,399.08406 C 784.42909,406.21574 789.12039,412.04897 795.31249,416.58375 C 801.51119,421.11201 809.11909,423.46096 818.15609,423.61104 C 827.23219,423.60451 834.76189,421.41868 840.77129,417.04702 C 846.78069,412.67536 850.28449,406.13744 851.28939,397.44632 L 817.73199,397.44632 L 817.73199,366.6881"
         id="path2470"
         style="fill:#e01d22;fill-opacity:1;fill-rule:nonzero;stroke:none" />
    </g>
  </g>
</svg>
