<?xml version="1.0" encoding="utf-8"?>
<!-- Generator: Adobe Illustrator 27.5.0, SVG Export Plug-In . SVG Version: 6.00 Build 0)  -->
<svg version="1.1" xmlns="http://www.w3.org/2000/svg" xmlns:xlink="http://www.w3.org/1999/xlink" x="0px" y="0px"
	 viewBox="0 0 1000 700" style="enable-background:new 0 0 1000 700;" xml:space="preserve">
<g id="Bg">
	
		<linearGradient id="SVGID_1_" gradientUnits="userSpaceOnUse" x1="-10478" y1="-12074" x2="-10478" y2="-11374" gradientTransform="matrix(-1 0 0 -1 -9978 -11374)">
		<stop  offset="0" style="stop-color:#E7CEA1"/>
		<stop  offset="0.0282" style="stop-color:#E6C69C"/>
		<stop  offset="0.1196" style="stop-color:#E3AF8F"/>
		<stop  offset="0.2066" style="stop-color:#E1A288"/>
		<stop  offset="0.2841" style="stop-color:#E09D85"/>
		<stop  offset="0.4392" style="stop-color:#DEB1A1"/>
		<stop  offset="0.642" style="stop-color:#DBC7C1"/>
		<stop  offset="0.7546" style="stop-color:#DACFCD"/>
		<stop  offset="0.8397" style="stop-color:#C7C3C8"/>
		<stop  offset="1" style="stop-color:#99A7BB"/>
	</linearGradient>
	<polygon style="fill:url(#SVGID_1_);" points="0,0 1000,0 1000,700 0,700 	"/>
</g>
<g id="Object">
	<g>
		<defs>
			
				<rect id="SVGID_00000002366282346348379000000009807194955406299035_" transform="matrix(-1 -1.224647e-16 1.224647e-16 -1 1000 700)" width="1000" height="700"/>
		</defs>
		<clipPath id="SVGID_00000144305235392047588430000002930361722045288838_">
			<use xlink:href="#SVGID_00000002366282346348379000000009807194955406299035_"  style="overflow:visible;"/>
		</clipPath>
		<g style="opacity:0.3;clip-path:url(#SVGID_00000144305235392047588430000002930361722045288838_);">
			
				<linearGradient id="SVGID_00000168821239542500891420000005788348755516872850_" gradientUnits="userSpaceOnUse" x1="136.9769" y1="600.4893" x2="136.9769" y2="395.2527">
				<stop  offset="0.163" style="stop-color:#403E40"/>
				<stop  offset="1" style="stop-color:#555455"/>
			</linearGradient>
			<path style="fill:url(#SVGID_00000168821239542500891420000005788348755516872850_);" d="M209.539,425.309
				c-19.382-19.382-45.151-30.057-72.562-30.057c-27.411,0-53.18,10.674-72.562,30.057c-19.382,19.382-30.056,45.152-30.056,72.562
				c0,27.41,10.674,53.18,30.056,72.562s45.152,30.056,72.562,30.056c27.41,0,53.18-10.674,72.562-30.056
				s30.056-45.152,30.056-72.562C239.595,470.461,228.921,444.691,209.539,425.309z M66.378,427.272
				c18.858-18.858,43.93-29.243,70.599-29.243c26.669,0,51.741,10.385,70.599,29.243c18.858,18.858,29.243,43.93,29.243,70.599
				c0,26.669-10.385,51.741-29.243,70.599c-18.858,18.858-43.93,29.243-70.599,29.243c-26.669,0-51.742-10.385-70.599-29.243
				c-18.858-18.858-29.243-43.93-29.243-70.599C37.135,471.202,47.52,446.13,66.378,427.272z"/>
			<g>
				<g>
					
						<linearGradient id="SVGID_00000030456055220343615800000018340616342693254572_" gradientUnits="userSpaceOnUse" x1="136.9769" y1="568.5043" x2="136.9769" y2="427.238">
						<stop  offset="0.163" style="stop-color:#403E40"/>
						<stop  offset="1" style="stop-color:#555455"/>
					</linearGradient>
					<path style="fill:url(#SVGID_00000030456055220343615800000018340616342693254572_);" d="M136.977,568.504
						c-38.947,0-70.633-31.686-70.633-70.633c0-38.947,31.686-70.633,70.633-70.633c38.947,0,70.633,31.686,70.633,70.633
						C207.61,536.818,175.924,568.504,136.977,568.504z M136.977,427.701c-38.692,0-70.171,31.478-70.171,70.17
						c0,38.692,31.479,70.171,70.171,70.171c38.692,0,70.171-31.478,70.171-70.171C207.148,459.179,175.669,427.701,136.977,427.701
						z"/>
					
						<linearGradient id="SVGID_00000026160582553984214450000010746703885544299955_" gradientUnits="userSpaceOnUse" x1="136.9769" y1="568.967" x2="136.9769" y2="426.7753">
						<stop  offset="0.163" style="stop-color:#403E40"/>
						<stop  offset="1" style="stop-color:#555455"/>
					</linearGradient>
					<path style="fill:url(#SVGID_00000026160582553984214450000010746703885544299955_);" d="M136.977,568.967
						c-39.203,0-71.096-31.894-71.096-71.096c0-39.202,31.894-71.096,71.096-71.096c39.202,0,71.096,31.894,71.096,71.096
						C208.073,537.073,176.179,568.967,136.977,568.967z M136.977,428.163c-38.437,0-69.708,31.271-69.708,69.708
						c0,38.437,31.271,69.708,69.708,69.708c38.437,0,69.708-31.271,69.708-69.708C206.685,459.434,175.414,428.163,136.977,428.163
						z"/>
				</g>
			</g>
			
				<linearGradient id="SVGID_00000085958086195018569410000003833895524839668636_" gradientUnits="userSpaceOnUse" x1="136.9769" y1="503.4703" x2="136.9769" y2="492.2719">
				<stop  offset="0.163" style="stop-color:#403E40"/>
				<stop  offset="1" style="stop-color:#555455"/>
			</linearGradient>
			<circle style="fill:url(#SVGID_00000085958086195018569410000003833895524839668636_);" cx="136.977" cy="497.871" r="5.599"/>
			<g>
				
					<linearGradient id="SVGID_00000012471430504534159670000009864490526099544206_" gradientUnits="userSpaceOnUse" x1="136.9771" y1="681.772" x2="136.9771" y2="492.7775">
					<stop  offset="0.163" style="stop-color:#403E40"/>
					<stop  offset="1" style="stop-color:#555455"/>
				</linearGradient>
				<polygon style="fill:url(#SVGID_00000012471430504534159670000009864490526099544206_);" points="237.408,681.772 
					136.977,496.658 36.546,681.772 34.92,680.89 136.977,492.777 239.035,680.89 				"/>
			</g>
			<g>
				
					<linearGradient id="SVGID_00000034074202341429835260000010107302621598338189_" gradientUnits="userSpaceOnUse" x1="136.9771" y1="585.5106" x2="136.9771" y2="410.2317">
					<stop  offset="0.163" style="stop-color:#403E40"/>
					<stop  offset="1" style="stop-color:#555455"/>
				</linearGradient>
				<polygon style="fill:url(#SVGID_00000034074202341429835260000010107302621598338189_);" points="218.465,585.511 
					54.814,410.864 55.489,410.232 219.14,584.878 				"/>
			</g>
			<g>
				
					<linearGradient id="SVGID_00000005232485913246954530000015755423219390782848_" gradientUnits="userSpaceOnUse" x1="136.9769" y1="610.889" x2="136.9769" y2="384.8533">
					<stop  offset="0.163" style="stop-color:#403E40"/>
					<stop  offset="1" style="stop-color:#555455"/>
				</linearGradient>
				<polygon style="fill:url(#SVGID_00000005232485913246954530000015755423219390782848_);" points="176.32,610.889 
					96.761,385.161 97.634,384.853 177.193,610.581 				"/>
			</g>
			<g>
				
					<linearGradient id="SVGID_00000039829542422194941570000008195566866984460195_" gradientUnits="userSpaceOnUse" x1="136.9769" y1="580.0338" x2="136.9769" y2="415.7085">
					<stop  offset="0.163" style="stop-color:#403E40"/>
					<stop  offset="1" style="stop-color:#555455"/>
				</linearGradient>
				<polygon style="fill:url(#SVGID_00000039829542422194941570000008195566866984460195_);" points="49.97,580.034 49.337,579.359 
					223.984,415.708 224.617,416.384 				"/>
			</g>
			<g>
				
					<linearGradient id="SVGID_00000090257583758515630760000009629613329419009949_" gradientUnits="userSpaceOnUse" x1="136.9771" y1="502.2213" x2="136.9771" y2="493.521">
					<stop  offset="0.163" style="stop-color:#403E40"/>
					<stop  offset="1" style="stop-color:#555455"/>
				</linearGradient>
				<polygon style="fill:url(#SVGID_00000090257583758515630760000009629613329419009949_);" points="256.568,502.221 
					17.356,494.446 17.386,493.521 256.598,501.296 				"/>
			</g>
			<g>
				
					<linearGradient id="SVGID_00000160902772839405274290000015665962250873316797_" gradientUnits="userSpaceOnUse" x1="136.9769" y1="617.492" x2="136.9769" y2="378.2503">
					<stop  offset="0.163" style="stop-color:#403E40"/>
					<stop  offset="1" style="stop-color:#555455"/>
				</linearGradient>
				<polygon style="fill:url(#SVGID_00000160902772839405274290000015665962250873316797_);" points="133.551,617.492 
					132.627,617.462 140.402,378.25 141.327,378.28 				"/>
			</g>
			<g>
				
					<linearGradient id="SVGID_00000116202869710250026730000010640600868238838429_" gradientUnits="userSpaceOnUse" x1="136.9771" y1="608.7451" x2="136.9771" y2="386.9972">
					<stop  offset="0.163" style="stop-color:#403E40"/>
					<stop  offset="1" style="stop-color:#555455"/>
				</linearGradient>
				<polygon style="fill:url(#SVGID_00000116202869710250026730000010640600868238838429_);" points="91.945,608.745 
					91.089,608.394 182.009,386.997 182.865,387.349 				"/>
			</g>
			<g>
				
					<linearGradient id="SVGID_00000089564469375436806250000000818657601597156013_" gradientUnits="userSpaceOnUse" x1="136.9769" y1="539.652" x2="136.9769" y2="456.0903">
					<stop  offset="0.163" style="stop-color:#403E40"/>
					<stop  offset="1" style="stop-color:#555455"/>
				</linearGradient>
				<polygon style="fill:url(#SVGID_00000089564469375436806250000000818657601597156013_);" points="24.837,539.652 
					24.518,538.784 249.116,456.09 249.436,456.959 				"/>
			</g>
			<g>
				
					<linearGradient id="SVGID_00000074432006452396439850000016832442720734144912_" gradientUnits="userSpaceOnUse" x1="136.9769" y1="548.4477" x2="136.9769" y2="447.2946">
					<stop  offset="0.163" style="stop-color:#403E40"/>
					<stop  offset="1" style="stop-color:#555455"/>
				</linearGradient>
				<polygon style="fill:url(#SVGID_00000074432006452396439850000016832442720734144912_);" points="245.434,548.448 
					28.132,448.134 28.52,447.295 245.822,547.608 				"/>
			</g>
			<g>
				
					<linearGradient id="SVGID_00000104667519511097789520000012141702721110386319_" gradientUnits="userSpaceOnUse" x1="136.9771" y1="684.7357" x2="136.9771" y2="679.4802">
					<stop  offset="0.163" style="stop-color:#403E40"/>
					<stop  offset="1" style="stop-color:#555455"/>
				</linearGradient>
				
					<rect x="26.671" y="679.48" style="fill:url(#SVGID_00000104667519511097789520000012141702721110386319_);" width="220.611" height="5.255"/>
				
					<linearGradient id="SVGID_00000064334025768695107290000011613834511573790343_" gradientUnits="userSpaceOnUse" x1="136.9771" y1="687.3815" x2="136.9771" y2="682.126">
					<stop  offset="0.163" style="stop-color:#403E40"/>
					<stop  offset="1" style="stop-color:#555455"/>
				</linearGradient>
				
					<rect x="22.258" y="682.126" style="fill:url(#SVGID_00000064334025768695107290000011613834511573790343_);" width="229.438" height="5.255"/>
			</g>
			
				<linearGradient id="SVGID_00000058560325668993768160000008104627890537662392_" gradientUnits="userSpaceOnUse" x1="54.9275" y1="418.876" x2="54.9275" y2="402.2198">
				<stop  offset="0.163" style="stop-color:#403E40"/>
				<stop  offset="1" style="stop-color:#555455"/>
			</linearGradient>
			<circle style="fill:url(#SVGID_00000058560325668993768160000008104627890537662392_);" cx="54.928" cy="410.548" r="8.328"/>
			
				<linearGradient id="SVGID_00000169548635173806806820000008273492225251832459_" gradientUnits="userSpaceOnUse" x1="28.326" y1="456.5244" x2="28.326" y2="439.8682">
				<stop  offset="0.163" style="stop-color:#403E40"/>
				<stop  offset="1" style="stop-color:#555455"/>
			</linearGradient>
			<circle style="fill:url(#SVGID_00000169548635173806806820000008273492225251832459_);" cx="28.326" cy="448.196" r="8.328"/>
			
				<linearGradient id="SVGID_00000097461501806493585500000003211778920791870635_" gradientUnits="userSpaceOnUse" x1="16.178" y1="502.3115" x2="16.178" y2="485.6553">
				<stop  offset="0.163" style="stop-color:#403E40"/>
				<stop  offset="1" style="stop-color:#555455"/>
			</linearGradient>
			<circle style="fill:url(#SVGID_00000097461501806493585500000003211778920791870635_);" cx="16.178" cy="493.983" r="8.328"/>
			
				<linearGradient id="SVGID_00000101815279695126358150000015615673620945578391_" gradientUnits="userSpaceOnUse" x1="24.6776" y1="547.546" x2="24.6776" y2="530.8898">
				<stop  offset="0.163" style="stop-color:#403E40"/>
				<stop  offset="1" style="stop-color:#555455"/>
			</linearGradient>
			<circle style="fill:url(#SVGID_00000101815279695126358150000015615673620945578391_);" cx="24.678" cy="539.218" r="8.328"/>
			
				<linearGradient id="SVGID_00000166667619119814064860000000071385317348168355_" gradientUnits="userSpaceOnUse" x1="49.6537" y1="588.0244" x2="49.6537" y2="571.3681">
				<stop  offset="0.163" style="stop-color:#403E40"/>
				<stop  offset="1" style="stop-color:#555455"/>
			</linearGradient>
			<circle style="fill:url(#SVGID_00000166667619119814064860000000071385317348168355_);" cx="49.654" cy="579.696" r="8.328"/>
			
				<linearGradient id="SVGID_00000013888017264236754740000012159331054776822969_" gradientUnits="userSpaceOnUse" x1="91.517" y1="617.4771" x2="91.517" y2="600.8209">
				<stop  offset="0.163" style="stop-color:#403E40"/>
				<stop  offset="1" style="stop-color:#555455"/>
			</linearGradient>
			<circle style="fill:url(#SVGID_00000013888017264236754740000012159331054776822969_);" cx="91.517" cy="609.149" r="8.328"/>
			
				<linearGradient id="SVGID_00000109736019987978416070000017245828038541518267_" gradientUnits="userSpaceOnUse" x1="133.0892" y1="625.8052" x2="133.0892" y2="609.149">
				<stop  offset="0.163" style="stop-color:#403E40"/>
				<stop  offset="1" style="stop-color:#555455"/>
			</linearGradient>
			<circle style="fill:url(#SVGID_00000109736019987978416070000017245828038541518267_);" cx="133.089" cy="617.477" r="8.328"/>
			
				<linearGradient id="SVGID_00000081627810271937009750000007695898530915427506_" gradientUnits="userSpaceOnUse" x1="177.1929" y1="619.2171" x2="177.1929" y2="602.5609">
				<stop  offset="0.163" style="stop-color:#403E40"/>
				<stop  offset="1" style="stop-color:#555455"/>
			</linearGradient>
			<circle style="fill:url(#SVGID_00000081627810271937009750000007695898530915427506_);" cx="177.193" cy="610.889" r="8.328"/>
			
				<linearGradient id="SVGID_00000034052065950106756930000006943209573724316860_" gradientUnits="userSpaceOnUse" x1="220.4191" y1="596.3525" x2="220.4191" y2="579.6963">
				<stop  offset="0.163" style="stop-color:#403E40"/>
				<stop  offset="1" style="stop-color:#555455"/>
			</linearGradient>
			<circle style="fill:url(#SVGID_00000034052065950106756930000006943209573724316860_);" cx="220.419" cy="588.024" r="8.328"/>
			
				<linearGradient id="SVGID_00000061469576805090447490000002141532846281798294_" gradientUnits="userSpaceOnUse" x1="247.1378" y1="555.8741" x2="247.1378" y2="539.2179">
				<stop  offset="0.163" style="stop-color:#403E40"/>
				<stop  offset="1" style="stop-color:#555455"/>
			</linearGradient>
			<circle style="fill:url(#SVGID_00000061469576805090447490000002141532846281798294_);" cx="247.138" cy="547.546" r="8.328"/>
			
				<linearGradient id="SVGID_00000065766003720619561760000007639622600118525616_" gradientUnits="userSpaceOnUse" x1="257.6044" y1="510.087" x2="257.6044" y2="493.4308">
				<stop  offset="0.163" style="stop-color:#403E40"/>
				<stop  offset="1" style="stop-color:#555455"/>
			</linearGradient>
			<circle style="fill:url(#SVGID_00000065766003720619561760000007639622600118525616_);" cx="257.604" cy="501.759" r="8.328"/>
			
				<linearGradient id="SVGID_00000127039926194846079210000006159005005008128651_" gradientUnits="userSpaceOnUse" x1="249.2763" y1="464.8525" x2="249.2763" y2="448.1963">
				<stop  offset="0.163" style="stop-color:#403E40"/>
				<stop  offset="1" style="stop-color:#555455"/>
			</linearGradient>
			<circle style="fill:url(#SVGID_00000127039926194846079210000006159005005008128651_);" cx="249.276" cy="456.524" r="8.328"/>
			
				<linearGradient id="SVGID_00000124161851386531759180000008211354130184243126_" gradientUnits="userSpaceOnUse" x1="224.3002" y1="424.3741" x2="224.3002" y2="407.7179">
				<stop  offset="0.163" style="stop-color:#403E40"/>
				<stop  offset="1" style="stop-color:#555455"/>
			</linearGradient>
			<circle style="fill:url(#SVGID_00000124161851386531759180000008211354130184243126_);" cx="224.3" cy="416.046" r="8.328"/>
			
				<linearGradient id="SVGID_00000008136049597693706680000007178237743534262927_" gradientUnits="userSpaceOnUse" x1="182.4369" y1="394.9214" x2="182.4369" y2="378.2652">
				<stop  offset="0.163" style="stop-color:#403E40"/>
				<stop  offset="1" style="stop-color:#555455"/>
			</linearGradient>
			<circle style="fill:url(#SVGID_00000008136049597693706680000007178237743534262927_);" cx="182.437" cy="386.593" r="8.328"/>
			
				<linearGradient id="SVGID_00000075844175977780663330000017318897672260400542_" gradientUnits="userSpaceOnUse" x1="141.4173" y1="383.6562" x2="141.4173" y2="367">
				<stop  offset="0.163" style="stop-color:#403E40"/>
				<stop  offset="1" style="stop-color:#555455"/>
			</linearGradient>
			<circle style="fill:url(#SVGID_00000075844175977780663330000017318897672260400542_);" cx="141.417" cy="375.328" r="8.328"/>
			
				<linearGradient id="SVGID_00000164500461153732157710000010481072738524374707_" gradientUnits="userSpaceOnUse" x1="96.7609" y1="391.9843" x2="96.7609" y2="375.3281">
				<stop  offset="0.163" style="stop-color:#403E40"/>
				<stop  offset="1" style="stop-color:#555455"/>
			</linearGradient>
			<circle style="fill:url(#SVGID_00000164500461153732157710000010481072738524374707_);" cx="96.761" cy="383.656" r="8.328"/>
		</g>
		
			<linearGradient id="SVGID_00000101102322131673099780000017512531221728922010_" gradientUnits="userSpaceOnUse" x1="540" y1="700" x2="540" y2="323.6364">
			<stop  offset="0.163" style="stop-color:#403E40"/>
			<stop  offset="1" style="stop-color:#555455"/>
		</linearGradient>
		
			<polygon style="opacity:0.82;clip-path:url(#SVGID_00000144305235392047588430000002930361722045288838_);fill:url(#SVGID_00000101102322131673099780000017512531221728922010_);" points="
			470,700 470,411.93 489.091,406.579 489.091,387.85 520.909,376.256 520.909,344.149 555.455,323.636 572.727,328.096 
			572.727,361.986 586.364,365.554 586.364,381.607 598.182,384.283 598.182,402.12 610,404.795 610,700 		"/>
		
			<linearGradient id="SVGID_00000102545281771859720010000000828315861653337244_" gradientUnits="userSpaceOnUse" x1="768" y1="700" x2="768" y2="136.7414">
			<stop  offset="0.163" style="stop-color:#403E40"/>
			<stop  offset="1" style="stop-color:#555455"/>
		</linearGradient>
		
			<polygon style="clip-path:url(#SVGID_00000144305235392047588430000002930361722045288838_);fill:url(#SVGID_00000102545281771859720010000000828315861653337244_);" points="
			822,176.61 822,170.248 814,170.248 814,150.182 810.828,150.182 810.828,145.136 772.8,145.136 772.8,139.286 754.4,139.286 
			754.4,145.136 751.2,145.136 751.2,136.741 732.8,136.741 732.8,145.136 725.172,145.136 725.172,150.182 722,150.182 
			722,170.248 714,170.248 714,176.61 710,176.61 710,700 826,700 826,176.61 		"/>
		
			<linearGradient id="SVGID_00000097487211311454249830000005428308771738957460_" gradientUnits="userSpaceOnUse" x1="-12111.3779" y1="700" x2="-12111.3779" y2="331.4652" gradientTransform="matrix(-1 0 0 1 -11125.3994 0)">
			<stop  offset="0.163" style="stop-color:#403E40"/>
			<stop  offset="1" style="stop-color:#555455"/>
		</linearGradient>
		
			<polygon style="clip-path:url(#SVGID_00000144305235392047588430000002930361722045288838_);fill:url(#SVGID_00000097487211311454249830000005428308771738957460_);" points="
			960.284,390.043 960.284,375.466 1065,331.465 1065,375.466 1065,397.466 1065,700 906.956,700 906.956,397.466 		"/>
		
			<linearGradient id="SVGID_00000001628267165722651700000004437968649096480156_" gradientUnits="userSpaceOnUse" x1="-80" y1="700" x2="-80" y2="436" gradientTransform="matrix(-1 0 0 1 -122 0)">
			<stop  offset="0.0815" style="stop-color:#403E40"/>
			<stop  offset="0.4715" style="stop-color:#444244"/>
			<stop  offset="0.8768" style="stop-color:#504F50"/>
			<stop  offset="1" style="stop-color:#555455"/>
		</linearGradient>
		
			<polygon style="clip-path:url(#SVGID_00000144305235392047588430000002930361722045288838_);fill:url(#SVGID_00000001628267165722651700000004437968649096480156_);" points="
			-100.087,436 30,457 30,700 -100.087,700 -114,700 -114,463.683 		"/>
		
			<linearGradient id="SVGID_00000130610731671916937270000010191565197658606780_" gradientUnits="userSpaceOnUse" x1="288.0347" y1="700" x2="288.0347" y2="277.1191">
			<stop  offset="0.0815" style="stop-color:#403E40"/>
			<stop  offset="0.4715" style="stop-color:#444244"/>
			<stop  offset="0.8768" style="stop-color:#504F50"/>
			<stop  offset="1" style="stop-color:#555455"/>
		</linearGradient>
		
			<polygon style="clip-path:url(#SVGID_00000144305235392047588430000002930361722045288838_);fill:url(#SVGID_00000130610731671916937270000010191565197658606780_);" points="
			350,308.345 350,289.609 346.273,289.422 346.273,282.41 324.841,277.119 285.705,277.119 244.706,283.468 229.797,290.875 
			229.797,296.465 226.069,296.746 226.069,314.59 229.797,313.876 229.797,319.708 226.069,320.835 226.069,700 350,700 
			350,315.482 346.273,314.845 346.273,308.345 		"/>
		
			<linearGradient id="SVGID_00000137134375574688553380000009602378542420393375_" gradientUnits="userSpaceOnUse" x1="507.5" y1="414" x2="507.5" y2="701">
			<stop  offset="0" style="stop-color:#403E40"/>
			<stop  offset="1" style="stop-color:#161F21"/>
		</linearGradient>
		
			<path style="clip-path:url(#SVGID_00000144305235392047588430000002930361722045288838_);fill:url(#SVGID_00000137134375574688553380000009602378542420393375_);" d="
			M1011.714,553l-5.143,1.51v5.286l-24.857-3.775L962,558.286v72.125l-10.5,7.808V513l-19-8h-17v-4h-28v5h-27v162h-35V566.683
			c0-3.417-3.095-6.187-6.913-6.187l-0.087,0.448v-13.461c0-1.703-1.542-3.083-3.445-3.083c-22.684-1.2-45.426-1.2-68.109,0
			c-1.903,0-3.445,1.38-3.445,3.083v13.461l-0.087-0.448c-3.818,0-6.913,2.77-6.913,6.187V622H721V521l-25-14h-14v-14h-70v11h-72v6
			h-23v11h-27v126h-55v-46.146h-15V593h-9.25l-1.458-21.039c0.122-0.17,0.11-0.407-0.039-0.562l-0.727-10.477
			c0.06-0.134,0.051-0.29-0.029-0.416l-1.192-17.202v0l-0.67-9.667h2.741v-1.176h-5.438v-12.433c0.85-0.253,1.47-1.039,1.47-1.971
			c0-1.136-0.921-2.058-2.058-2.058c-1.136,0-2.058,0.921-2.058,2.058c0,0.932,0.62,1.718,1.47,1.971v12.433h-5.291v1.176h2.259
			l0.021,0.03L394.758,593H351h-46v7.2h-9v11.127h-11V682h-17V432h3v-6h-7v-12h-71v12h-7v6h3.962v20.606h-19.509l-17.884,14.441V629
			H135.5v-82l-26-11h-67l-29,10v128H-1v27h14.5H89h28h18.5h17.069H175h82h11h17h19h123h8h55h30h186h15h15.5H765h50h10.5h35H898h39
			h14.5H962h27h27V554.51L1011.714,553z M403.371,593h-1.279l0.643-0.668L403.371,593z M396.678,584.688l6.332-6.383l6.046,6.189
			l-6.318,6.563L396.678,584.688z M409.345,585.466l0.522,7.534h-5.279l-1.241-1.304L409.345,585.466z M409.2,583.377l-5.568-5.7
			l4.836-4.875L409.2,583.377z M403.015,577.047l-5.217-5.34l5.259-5.266l5.257,5.264L403.015,577.047z M407.503,560.742
			l-4.446,4.451l-4.445-4.451l4.446-4.446L407.503,560.742z M399.418,551.41l3.672-3.672l3.608,3.67l-3.642,3.642L399.418,551.41z
			 M408.304,570.446l-4.623-4.629l4.023-4.028L408.304,570.446z M407.548,559.539l-3.867-3.867l3.365-3.365L407.548,559.539z
			 M406.912,550.365l-3.198-3.251l2.78-2.78L406.912,550.365z M406.315,541.742l-2.696-3.962l2.193-3.29L406.315,541.742z
			 M405.32,533.637l-2.238,3.357l-2.285-3.357H405.32z M400.539,534.824l2.016,2.961l-2.592,3.887L400.539,534.824z M403.09,538.572
			l3.207,4.711l-3.201,3.201l-3.147-3.201L403.09,538.572z M399.739,544.329l2.733,2.779l-3.24,3.24L399.739,544.329z
			 M399.068,552.306l3.366,3.366l-3.985,3.985L399.068,552.306z M398.281,561.658l4.153,4.159l-4.918,4.924L398.281,561.658z
			 M397.366,572.527l5.027,5.146l-5.967,6.016L397.366,572.527z M396.271,585.539l5.855,6.153L400.868,593h-5.225L396.271,585.539z"
			/>
	</g>
</g>
</svg>
